<svg xmlns="http://www.w3.org/2000/svg" xmlns:xlink="http://www.w3.org/1999/xlink" width="326" zoomAndPan="magnify" viewBox="0 0 244.5 131.999998" height="176" preserveAspectRatio="xMidYMid meet" version="1.0"><defs><clipPath id="3d7b8d5646"><path d="M 11.8125 19.078125 L 232.6875 19.078125 L 232.6875 113.191406 L 11.8125 113.191406 Z M 11.8125 19.078125 " clip-rule="nonzero"/></clipPath><clipPath id="fd567522ad"><path d="M 122.25 19.078125 C 61.257812 19.078125 11.8125 40.144531 11.8125 66.132812 C 11.8125 92.125 61.257812 113.191406 122.25 113.191406 C 183.242188 113.191406 232.6875 92.125 232.6875 66.132812 C 232.6875 40.144531 183.242188 19.078125 122.25 19.078125 Z M 122.25 19.078125 " clip-rule="nonzero"/></clipPath><clipPath id="14b4320394"><path d="M 34.0625 83 L 47 83 L 47 86 L 34.0625 86 Z M 34.0625 83 " clip-rule="nonzero"/></clipPath></defs><g clip-path="url(#3d7b8d5646)"><g clip-path="url(#fd567522ad)"><path fill="#bce6ff" d="M 11.8125 19.078125 L 232.6875 19.078125 L 232.6875 113.191406 L 11.8125 113.191406 Z M 11.8125 19.078125 " fill-opacity="1" fill-rule="nonzero"/></g></g><g clip-path="url(#14b4320394)"><path stroke-linecap="round" transform="matrix(0.475169, 0, 0, 0.474138, 35.492161, 46.588468)" fill="none" stroke-linejoin="miter" d="M 1.002988 80.000065 L 20.001165 80.000065 " stroke="#a6dff9" stroke-width="4.6" stroke-opacity="1" stroke-miterlimit="4"/></g><path stroke-linecap="round" transform="matrix(0.475169, 0, 0, 0.474138, 35.492161, 46.588468)" fill="none" stroke-linejoin="miter" d="M 31.000543 80.000065 L 49.99872 80.000065 " stroke="#93daf8" stroke-width="4.6" stroke-opacity="1" stroke-miterlimit="4"/><path stroke-linecap="round" transform="matrix(0.475169, 0, 0, 0.474138, 35.492161, 46.588468)" fill="none" stroke-linejoin="miter" d="M 60.998097 80.000065 L 79.996274 80.000065 " stroke="#7ed4f7" stroke-width="4.6" stroke-opacity="1" stroke-miterlimit="4"/><path stroke-linecap="round" transform="matrix(0.475169, 0, 0, 0.474138, 35.492161, 46.588468)" fill="none" stroke-linejoin="miter" d="M 91.003872 80.000065 L 110.002049 80.000065 " stroke="#6bcff6" stroke-width="4.6" stroke-opacity="1" stroke-miterlimit="4"/><path stroke-linecap="round" transform="matrix(0.475169, 0, 0, 0.474138, 35.492161, 46.588468)" fill="none" stroke-linejoin="miter" d="M 121.001427 80.000065 L 139.999604 80.000065 " stroke="#52cbf5" stroke-width="4.6" stroke-opacity="1" stroke-miterlimit="4"/><path stroke-linecap="round" transform="matrix(0.475169, 0, 0, 0.474138, 35.492161, 46.588468)" fill="none" stroke-linejoin="miter" d="M 150.998981 80.000065 L 169.997158 80.000065 " stroke="#39c6f4" stroke-width="4.6" stroke-opacity="1" stroke-miterlimit="4"/><path stroke-linecap="round" transform="matrix(0.475169, 0, 0, 0.474138, 35.492161, 46.588468)" fill="none" stroke-linejoin="miter" d="M 180.996535 80.000065 L 200.002933 80.000065 " stroke="#20c2f3" stroke-width="4.6" stroke-opacity="1" stroke-miterlimit="4"/><path stroke-linecap="round" transform="matrix(0.475169, 0, 0, 0.474138, 35.492161, 46.588468)" fill="none" stroke-linejoin="miter" d="M 211.00231 80.000065 L 230.000488 80.000065 " stroke="#04bef2" stroke-width="4.6" stroke-opacity="1" stroke-miterlimit="4"/><path stroke-linecap="round" transform="matrix(0.475169, 0, 0, 0.474138, 35.492161, 46.588468)" fill="none" stroke-linejoin="miter" d="M 240.999865 80.000065 L 259.998042 80.000065 " stroke="#00baf2" stroke-width="4.6" stroke-opacity="1" stroke-miterlimit="4"/><path stroke-linecap="round" transform="matrix(0.475169, 0, 0, 0.474138, 35.492161, 46.588468)" fill="none" stroke-linejoin="miter" d="M 270.997419 80.000065 L 290.003817 80.000065 " stroke="#00b6f1" stroke-width="4.6" stroke-opacity="1" stroke-miterlimit="4"/><path stroke-linecap="round" transform="matrix(0.475169, 0, 0, 0.474138, 35.492161, 46.588468)" fill="none" stroke-linejoin="miter" d="M 301.003194 80.000065 L 320.001371 80.000065 " stroke="#00b3f0" stroke-width="4.6" stroke-opacity="1" stroke-miterlimit="4"/><path stroke-linecap="round" transform="matrix(0.475169, 0, 0, 0.474138, 35.492161, 46.588468)" fill="none" stroke-linejoin="miter" d="M 331.000749 80.000065 L 349.998926 80.000065 " stroke="#00afef" stroke-width="4.6" stroke-opacity="1" stroke-miterlimit="4"/><path fill="#e51937" d="M 113.988281 46.589844 L 113.988281 58.203125 C 113.550781 57.539062 113.035156 56.9375 112.445312 56.402344 C 111.851562 55.867188 111.203125 55.410156 110.5 55.039062 C 109.792969 54.664062 109.050781 54.386719 108.273438 54.199219 C 107.5 54.011719 106.710938 53.925781 105.914062 53.9375 C 102.964844 53.9375 100.496094 54.980469 98.40625 57.066406 C 97.40625 58.066406 96.644531 59.21875 96.117188 60.527344 C 95.589844 61.835938 95.339844 63.195312 95.363281 64.605469 C 95.363281 67.640625 96.410156 70.152344 98.453125 72.238281 C 100.449219 74.371094 102.964844 75.417969 105.816406 75.417969 C 107.480469 75.417969 109 75.035156 110.378906 74.421875 C 111.710938 73.710938 112.945312 72.714844 114.039062 71.386719 L 114.039062 74.894531 L 116.652344 74.894531 L 116.652344 46.589844 Z M 45.089844 53.699219 C 43.664062 53.699219 42.238281 54.078125 40.910156 54.886719 C 39.773438 55.65625 38.839844 56.621094 38.105469 57.777344 L 38.105469 54.222656 L 35.492188 54.222656 L 35.492188 74.894531 L 38.105469 74.894531 L 38.105469 66.121094 C 38.105469 63.515625 38.390625 61.617188 38.867188 60.339844 C 39.34375 59.113281 40.121094 58.117188 41.195312 57.351562 C 42.238281 56.640625 43.378906 56.261719 44.566406 56.261719 C 45.613281 56.261719 46.515625 56.546875 47.324219 57.066406 C 48.09375 57.605469 48.628906 58.316406 48.9375 59.199219 C 49.222656 60.148438 49.367188 61.808594 49.367188 64.320312 L 49.367188 74.894531 L 51.980469 74.894531 L 51.980469 66.835938 C 51.980469 63.847656 52.21875 61.714844 52.691406 60.433594 C 53.167969 59.199219 53.976562 58.15625 55.023438 57.398438 C 56.066406 56.640625 57.207031 56.261719 58.492188 56.261719 C 59.535156 56.261719 60.390625 56.496094 61.152344 57.019531 C 61.910156 57.492188 62.433594 58.203125 62.765625 59.011719 C 63.097656 59.863281 63.242188 61.382812 63.242188 63.609375 L 63.242188 74.894531 L 65.902344 74.894531 L 65.902344 63.65625 C 65.902344 61.097656 65.664062 59.105469 65.144531 57.824219 C 64.90625 57.203125 64.582031 56.632812 64.164062 56.113281 C 63.75 55.59375 63.265625 55.148438 62.714844 54.78125 C 62.160156 54.410156 61.5625 54.132812 60.925781 53.949219 C 60.285156 53.765625 59.632812 53.683594 58.964844 53.699219 C 57.492188 53.699219 56.113281 54.175781 54.785156 54.980469 C 53.5 55.835938 52.40625 57.066406 51.503906 58.679688 C 51.125 57.492188 50.601562 56.546875 50.078125 55.882812 C 49.476562 55.183594 48.75 54.660156 47.894531 54.316406 C 46.992188 53.890625 46.089844 53.699219 45.042969 53.699219 Z M 80.871094 53.699219 C 77.78125 53.699219 75.214844 54.839844 73.269531 57.160156 C 72.339844 58.179688 71.628906 59.328125 71.136719 60.613281 C 70.644531 61.898438 70.40625 63.230469 70.417969 64.605469 C 70.417969 67.449219 71.367188 70.011719 73.363281 72.191406 C 75.265625 74.324219 77.78125 75.417969 80.824219 75.417969 C 82.25 75.457031 83.617188 75.191406 84.921875 74.617188 C 86.230469 74.046875 87.347656 73.222656 88.285156 72.144531 C 89.230469 71.121094 89.957031 69.957031 90.457031 68.652344 C 90.957031 67.351562 91.199219 66 91.183594 64.605469 C 91.183594 61.761719 90.277344 59.246094 88.425781 57.113281 C 87.484375 55.996094 86.347656 55.136719 85.015625 54.527344 C 83.683594 53.921875 82.285156 53.628906 80.824219 53.652344 Z M 131.953125 53.699219 C 128.625 53.699219 125.964844 54.980469 123.921875 57.589844 C 122.351562 59.628906 121.59375 61.949219 121.59375 64.605469 C 121.59375 67.402344 122.542969 69.867188 124.394531 72.097656 C 125.351562 73.214844 126.507812 74.066406 127.859375 74.648438 C 129.210938 75.234375 130.621094 75.488281 132.09375 75.417969 C 133.414062 75.433594 134.691406 75.207031 135.925781 74.730469 C 137.15625 74.253906 138.257812 73.566406 139.222656 72.667969 C 140.171875 71.8125 141.027344 70.628906 141.691406 69.203125 L 139.554688 68.019531 C 138.746094 69.394531 138.035156 70.390625 137.320312 70.960938 C 136.558594 71.605469 135.707031 72.101562 134.769531 72.445312 C 133.828125 72.785156 132.855469 72.957031 131.855469 72.949219 C 129.765625 72.949219 127.960938 72.191406 126.535156 70.675781 C 125.0625 69.109375 124.300781 67.167969 124.253906 64.746094 L 142.40625 64.746094 C 142.40625 61.902344 141.644531 59.53125 140.171875 57.636719 C 139.695312 57.003906 139.152344 56.433594 138.535156 55.933594 C 137.921875 55.429688 137.257812 55.007812 136.542969 54.664062 C 135.828125 54.324219 135.082031 54.070312 134.304688 53.90625 C 133.53125 53.742188 132.746094 53.675781 131.953125 53.699219 Z M 154.1875 53.699219 C 153.191406 53.699219 152.242188 53.984375 151.339844 54.554688 C 150.265625 55.273438 149.378906 56.175781 148.675781 57.257812 L 148.675781 54.175781 L 145.921875 54.175781 L 145.921875 74.847656 L 148.675781 74.847656 L 148.675781 67.925781 C 148.675781 64.320312 148.867188 61.902344 149.199219 60.765625 C 149.675781 59.199219 150.292969 58.0625 151.101562 57.351562 C 151.84375 56.636719 152.730469 56.273438 153.761719 56.261719 C 154.09375 56.261719 154.570312 56.355469 155.1875 56.640625 L 156.613281 54.363281 C 155.710938 53.890625 154.949219 53.652344 154.1875 53.652344 Z M 169.871094 53.699219 C 168.347656 53.699219 166.972656 54.03125 165.6875 54.742188 C 164.296875 55.546875 163.140625 56.605469 162.21875 57.921875 L 162.21875 54.175781 L 159.605469 54.175781 L 159.605469 74.847656 L 162.21875 74.847656 L 162.21875 67.261719 C 162.21875 64.558594 162.363281 62.660156 162.601562 61.617188 C 162.980469 60.054688 163.835938 58.773438 165.070312 57.683594 C 166.355469 56.59375 167.777344 56.070312 169.347656 56.070312 C 170.773438 56.070312 171.867188 56.449219 172.671875 57.113281 C 173.632812 57.929688 174.21875 58.957031 174.429688 60.195312 C 174.667969 61.003906 174.765625 62.566406 174.765625 64.984375 L 174.765625 74.847656 L 177.378906 74.847656 L 177.378906 64.273438 C 177.378906 61.429688 177.09375 59.34375 176.523438 58.015625 C 175.953125 56.6875 175.097656 55.644531 173.910156 54.839844 C 172.683594 54.027344 171.339844 53.632812 169.871094 53.652344 Z M 192.203125 53.699219 C 189.398438 53.699219 186.976562 54.742188 184.980469 56.828125 C 183.984375 57.851562 183.222656 59.023438 182.699219 60.34375 C 182.171875 61.667969 181.917969 63.039062 181.9375 64.464844 C 181.910156 65.898438 182.152344 67.285156 182.671875 68.621094 C 183.191406 69.960938 183.945312 71.152344 184.933594 72.191406 C 185.179688 72.460938 185.4375 72.714844 185.710938 72.953125 C 185.984375 73.195312 186.269531 73.417969 186.570312 73.625 C 186.867188 73.832031 187.175781 74.023438 187.496094 74.199219 C 187.816406 74.371094 188.144531 74.527344 188.480469 74.664062 C 188.820312 74.800781 189.164062 74.917969 189.511719 75.015625 C 189.863281 75.117188 190.21875 75.195312 190.578125 75.253906 C 190.9375 75.3125 191.296875 75.351562 191.660156 75.371094 C 192.023438 75.390625 192.386719 75.386719 192.75 75.367188 C 193.113281 75.34375 193.476562 75.304688 193.835938 75.242188 C 194.191406 75.179688 194.546875 75.097656 194.898438 74.996094 C 195.246094 74.894531 195.589844 74.777344 195.925781 74.636719 C 196.261719 74.496094 196.589844 74.339844 196.90625 74.164062 C 197.226562 73.988281 197.535156 73.796875 197.832031 73.585938 C 198.128906 73.375 198.414062 73.148438 198.683594 72.90625 C 198.957031 72.667969 199.214844 72.410156 199.457031 72.140625 C 199.699219 71.871094 199.925781 71.585938 200.136719 71.292969 L 200.136719 74.894531 L 202.703125 74.894531 L 202.703125 54.175781 L 200.1875 54.175781 L 200.1875 57.96875 C 199.285156 56.585938 198.113281 55.496094 196.667969 54.695312 C 195.296875 53.992188 193.839844 53.660156 192.296875 53.699219 Z M 131.953125 56.214844 C 133.1875 56.214844 134.328125 56.496094 135.371094 57.019531 C 136.511719 57.492188 137.367188 58.203125 138.035156 59.058594 C 138.652344 59.910156 139.175781 61.003906 139.554688 62.425781 L 124.492188 62.425781 C 125.0625 60.527344 125.820312 59.105469 126.867188 58.15625 C 128.292969 56.878906 130.003906 56.261719 131.953125 56.261719 Z M 192.441406 56.214844 C 194.671875 56.214844 196.527344 57.019531 198.09375 58.632812 C 199.566406 60.242188 200.328125 62.234375 200.328125 64.652344 C 200.328125 66.21875 199.996094 67.640625 199.378906 68.871094 C 199.035156 69.488281 198.621094 70.046875 198.128906 70.550781 C 197.640625 71.054688 197.09375 71.484375 196.488281 71.84375 C 195.882812 72.203125 195.238281 72.472656 194.5625 72.664062 C 193.882812 72.851562 193.191406 72.945312 192.488281 72.949219 C 191.0625 72.949219 189.730469 72.570312 188.496094 71.859375 C 188.046875 71.5625 187.625 71.222656 187.238281 70.847656 C 186.847656 70.472656 186.5 70.0625 186.1875 69.621094 C 185.871094 69.183594 185.601562 68.714844 185.375 68.226562 C 185.148438 67.734375 184.96875 67.226562 184.835938 66.703125 C 184.703125 66.179688 184.621094 65.648438 184.585938 65.109375 C 184.550781 64.570312 184.566406 64.035156 184.632812 63.5 C 184.695312 62.960938 184.8125 62.4375 184.972656 61.921875 C 185.136719 61.40625 185.34375 60.910156 185.597656 60.433594 C 185.921875 59.804688 186.324219 59.234375 186.804688 58.714844 C 187.285156 58.199219 187.828125 57.753906 188.433594 57.386719 C 189.035156 57.019531 189.675781 56.738281 190.359375 56.546875 C 191.039062 56.355469 191.734375 56.261719 192.441406 56.261719 Z M 80.777344 56.308594 C 82.914062 56.308594 84.765625 57.113281 86.289062 58.726562 C 86.90625 59.398438 87.40625 60.148438 87.789062 60.976562 C 88.171875 61.800781 88.421875 62.667969 88.535156 63.574219 C 88.652344 64.476562 88.625 65.378906 88.460938 66.273438 C 88.296875 67.171875 88 68.019531 87.570312 68.824219 C 87.253906 69.445312 86.855469 70.007812 86.382812 70.515625 C 85.90625 71.027344 85.371094 71.460938 84.777344 71.820312 C 84.179688 72.179688 83.546875 72.453125 82.875 72.636719 C 82.203125 72.820312 81.519531 72.910156 80.824219 72.902344 C 80.125 72.910156 79.441406 72.820312 78.769531 72.636719 C 78.097656 72.453125 77.464844 72.179688 76.871094 71.820312 C 76.273438 71.460938 75.738281 71.023438 75.265625 70.515625 C 74.789062 70.007812 74.394531 69.445312 74.074219 68.824219 C 73.378906 67.523438 73.027344 66.132812 73.03125 64.652344 C 73.03125 62.328125 73.789062 60.386719 75.3125 58.726562 C 76.832031 57.113281 78.636719 56.308594 80.824219 56.308594 Z M 106.054688 56.449219 C 106.59375 56.449219 107.128906 56.503906 107.660156 56.609375 C 108.191406 56.71875 108.703125 56.875 109.203125 57.085938 C 109.699219 57.296875 110.171875 57.554688 110.617188 57.859375 C 111.0625 58.160156 111.476562 58.507812 111.851562 58.894531 C 112.230469 59.28125 112.5625 59.703125 112.855469 60.15625 C 113.148438 60.609375 113.390625 61.085938 113.585938 61.589844 C 113.78125 62.09375 113.925781 62.609375 114.019531 63.140625 C 114.109375 63.671875 114.148438 64.207031 114.132812 64.746094 C 114.15625 66.246094 113.808594 67.652344 113.085938 68.96875 C 112.714844 69.574219 112.277344 70.128906 111.765625 70.625 C 111.253906 71.121094 110.6875 71.542969 110.070312 71.894531 C 109.449219 72.25 108.796875 72.519531 108.109375 72.703125 C 107.421875 72.890625 106.71875 72.988281 106.007812 72.996094 C 105.292969 72.988281 104.589844 72.890625 103.902344 72.695312 C 103.214844 72.5 102.5625 72.21875 101.949219 71.855469 C 101.335938 71.488281 100.78125 71.046875 100.285156 70.535156 C 99.789062 70.019531 99.367188 69.449219 99.023438 68.824219 C 98.667969 68.195312 98.398438 67.53125 98.21875 66.832031 C 98.035156 66.132812 97.941406 65.421875 97.941406 64.699219 C 97.941406 63.976562 98.035156 63.269531 98.21875 62.570312 C 98.398438 61.871094 98.667969 61.207031 99.023438 60.574219 C 99.367188 59.945312 99.789062 59.375 100.289062 58.859375 C 100.789062 58.34375 101.347656 57.90625 101.964844 57.542969 C 102.585938 57.179688 103.242188 56.90625 103.9375 56.71875 C 104.628906 56.535156 105.335938 56.445312 106.054688 56.449219 Z M 206.554688 55.835938 L 206.933594 55.835938 C 207.125 55.835938 207.265625 55.835938 207.3125 55.738281 C 207.410156 55.738281 207.457031 55.644531 207.457031 55.550781 L 207.359375 55.40625 C 207.359375 55.3125 207.359375 55.3125 207.265625 55.265625 L 206.554688 55.265625 Z M 206.269531 56.925781 L 206.269531 55.027344 L 207.410156 55.027344 C 207.550781 55.074219 207.644531 55.171875 207.695312 55.265625 L 207.789062 55.503906 C 207.789062 55.691406 207.695312 55.785156 207.644531 55.882812 C 207.503906 55.988281 207.347656 56.050781 207.171875 56.070312 L 207.359375 56.167969 L 207.644531 56.546875 L 207.882812 56.925781 L 207.503906 56.925781 L 207.359375 56.59375 L 207.027344 56.117188 L 206.601562 56.117188 L 206.601562 56.925781 Z M 207.027344 54.410156 C 206.789062 54.410156 206.554688 54.460938 206.316406 54.648438 C 206.078125 54.742188 205.886719 54.933594 205.792969 55.171875 C 205.644531 55.402344 205.574219 55.65625 205.574219 55.929688 C 205.574219 56.203125 205.644531 56.457031 205.792969 56.6875 C 205.886719 56.925781 206.078125 57.113281 206.316406 57.210938 C 206.554688 57.398438 206.789062 57.445312 207.027344 57.445312 C 207.3125 57.445312 207.550781 57.398438 207.789062 57.210938 C 208.027344 57.113281 208.261719 56.925781 208.359375 56.6875 C 208.453125 56.449219 208.546875 56.214844 208.546875 55.929688 C 208.546875 55.691406 208.453125 55.453125 208.359375 55.171875 C 208.21875 54.941406 208.027344 54.769531 207.789062 54.648438 C 207.550781 54.460938 207.3125 54.410156 207.027344 54.410156 Z M 207.027344 54.175781 C 207.359375 54.175781 207.644531 54.222656 207.929688 54.363281 C 208.214844 54.507812 208.40625 54.742188 208.597656 55.027344 C 208.785156 55.3125 208.832031 55.597656 208.832031 55.976562 C 208.832031 56.261719 208.785156 56.546875 208.597656 56.828125 C 208.453125 57.113281 208.214844 57.304688 207.929688 57.492188 C 207.648438 57.648438 207.347656 57.726562 207.027344 57.730469 C 206.742188 57.730469 206.457031 57.636719 206.171875 57.492188 C 205.886719 57.351562 205.699219 57.113281 205.507812 56.828125 C 205.363281 56.546875 205.269531 56.261719 205.269531 55.929688 C 205.269531 55.597656 205.363281 55.3125 205.507812 55.027344 C 205.699219 54.742188 205.886719 54.554688 206.171875 54.363281 C 206.457031 54.222656 206.789062 54.175781 207.027344 54.175781 Z M 207.027344 54.175781 " fill-opacity="1" fill-rule="nonzero"/></svg>