<svg xmlns="http://www.w3.org/2000/svg" xmlns:xlink="http://www.w3.org/1999/xlink" width="326" zoomAndPan="magnify" viewBox="0 0 244.5 131.999998" height="176" preserveAspectRatio="xMidYMid meet" version="1.0"><defs><clipPath id="12e907d46b"><path d="M 11.8125 19.078125 L 232.6875 19.078125 L 232.6875 113.191406 L 11.8125 113.191406 Z M 11.8125 19.078125 " clip-rule="nonzero"/></clipPath><clipPath id="948ccb88e1"><path d="M 122.25 19.078125 C 61.257812 19.078125 11.8125 40.144531 11.8125 66.132812 C 11.8125 92.125 61.257812 113.191406 122.25 113.191406 C 183.242188 113.191406 232.6875 92.125 232.6875 66.132812 C 232.6875 40.144531 183.242188 19.078125 122.25 19.078125 Z M 122.25 19.078125 " clip-rule="nonzero"/></clipPath><clipPath id="97742608b2"><path d="M 64 52.199219 L 71 52.199219 L 71 79 L 64 79 Z M 64 52.199219 " clip-rule="nonzero"/></clipPath><clipPath id="9465035a67"><path d="M 103 52.199219 L 130 52.199219 L 130 79.949219 L 103 79.949219 Z M 103 52.199219 " clip-rule="nonzero"/></clipPath><clipPath id="423463fa85"><path d="M 131 52.199219 L 157 52.199219 L 157 79 L 131 79 Z M 131 52.199219 " clip-rule="nonzero"/></clipPath><clipPath id="ee489015d6"><path d="M 39 52.199219 L 60 52.199219 L 60 79.949219 L 39 79.949219 Z M 39 52.199219 " clip-rule="nonzero"/></clipPath><clipPath id="8885392eed"><path d="M 75 52.199219 L 99 52.199219 L 99 79 L 75 79 Z M 75 52.199219 " clip-rule="nonzero"/></clipPath><clipPath id="08e19fcab9"><path d="M 154 52.199219 L 181 52.199219 L 181 79 L 154 79 Z M 154 52.199219 " clip-rule="nonzero"/></clipPath><clipPath id="19cb118706"><path d="M 181 52.199219 L 203 52.199219 L 203 79.949219 L 181 79.949219 Z M 181 52.199219 " clip-rule="nonzero"/></clipPath></defs><g clip-path="url(#12e907d46b)"><g clip-path="url(#948ccb88e1)"><path fill="#bce6ff" d="M 11.8125 19.078125 L 232.6875 19.078125 L 232.6875 113.191406 L 11.8125 113.191406 Z M 11.8125 19.078125 " fill-opacity="1" fill-rule="nonzero"/></g></g><g clip-path="url(#97742608b2)"><path fill="#d7000f" d="M 64.195312 52.738281 L 64.195312 78.871094 L 70.949219 78.871094 L 70.949219 52.738281 Z M 64.195312 52.738281 " fill-opacity="1" fill-rule="nonzero"/></g><g clip-path="url(#9465035a67)"><path fill="#d7000f" d="M 129.398438 65.851562 C 129.398438 70.070312 128.226562 73.394531 125.976562 75.816406 C 123.636719 78.242188 120.484375 79.410156 116.339844 79.410156 C 112.199219 79.410156 109.046875 78.242188 106.703125 75.816406 C 104.363281 73.394531 103.28125 70.070312 103.28125 65.851562 C 103.28125 61.628906 104.453125 58.125 106.703125 55.792969 C 108.957031 53.367188 112.199219 52.199219 116.339844 52.199219 C 120.484375 52.199219 123.726562 53.367188 125.976562 55.792969 C 128.226562 58.125 129.398438 61.539062 129.398438 65.851562 M 123.003906 65.851562 C 123.003906 63.066406 122.375 60.910156 121.203125 59.292969 C 120.03125 57.675781 118.410156 56.871094 116.25 56.871094 C 114.089844 56.871094 112.46875 57.675781 111.296875 59.292969 C 110.125 60.910156 109.496094 63.066406 109.496094 65.851562 C 109.496094 68.632812 110.125 70.699219 111.296875 72.316406 C 112.46875 73.933594 114.179688 74.742188 116.25 74.742188 C 118.320312 74.742188 120.03125 73.933594 121.203125 72.316406 C 122.375 70.699219 123.003906 68.542969 123.003906 65.851562 " fill-opacity="1" fill-rule="nonzero"/></g><g clip-path="url(#423463fa85)"><path fill="#d7000f" d="M 150.023438 52.738281 L 156.777344 52.738281 L 147.859375 78.871094 L 140.027344 78.871094 L 131.109375 52.738281 L 137.773438 52.738281 L 143.898438 71.507812 Z M 150.023438 52.738281 " fill-opacity="1" fill-rule="nonzero"/></g><g clip-path="url(#ee489015d6)"><path fill="#d7000f" d="M 40.238281 78.511719 L 40.238281 73.394531 C 43.210938 74.292969 45.824219 74.742188 48.074219 74.742188 C 50.328125 74.742188 52.757812 73.933594 52.757812 72.226562 C 52.757812 70.519531 52.488281 71.058594 52.039062 70.699219 C 51.585938 70.25 50.328125 69.621094 48.433594 68.8125 C 45.011719 67.375 42.761719 66.210938 41.679688 65.222656 C 40.417969 63.875 39.699219 62.167969 39.699219 60.191406 C 39.699219 58.214844 40.691406 55.613281 42.671875 54.175781 C 44.652344 52.828125 47.175781 52.199219 50.328125 52.199219 C 53.480469 52.199219 54.917969 52.46875 58.070312 53.097656 L 58.070312 57.765625 C 55.550781 57.136719 53.117188 56.691406 51.046875 56.691406 C 48.976562 56.691406 46.632812 57.496094 46.632812 59.113281 C 46.632812 60.730469 46.902344 60.191406 47.535156 60.640625 C 47.984375 60.910156 49.425781 61.628906 51.585938 62.617188 C 54.828125 64.054688 56.902344 65.3125 57.980469 66.296875 C 59.242188 67.554688 59.871094 69.171875 59.871094 71.148438 C 59.871094 74.023438 58.613281 76.175781 56.179688 77.613281 C 54.199219 78.78125 51.585938 79.410156 48.34375 79.410156 C 45.101562 79.410156 42.941406 79.140625 40.238281 78.421875 Z M 40.238281 78.511719 " fill-opacity="1" fill-rule="nonzero"/></g><g clip-path="url(#8885392eed)"><path fill="#d7000f" d="M 75.902344 78.871094 L 75.902344 52.738281 L 84.277344 52.738281 L 93.554688 70.25 L 93.554688 52.738281 L 98.777344 52.738281 L 98.777344 78.871094 L 90.941406 78.871094 L 81.125 61.179688 L 81.125 78.871094 Z M 75.902344 78.871094 " fill-opacity="1" fill-rule="nonzero"/></g><g clip-path="url(#08e19fcab9)"><path fill="#d7000f" d="M 161.191406 78.871094 L 154.523438 78.871094 L 163.441406 52.738281 L 171.277344 52.738281 L 180.191406 78.871094 L 173.4375 78.871094 L 167.3125 60.101562 Z M 161.191406 78.871094 " fill-opacity="1" fill-rule="nonzero"/></g><g clip-path="url(#19cb118706)"><path fill="#d7000f" d="M 202.976562 73.753906 C 200.996094 74.292969 197.84375 74.652344 196.761719 74.652344 C 194.0625 74.652344 191.808594 73.84375 190.1875 72.226562 C 188.566406 70.609375 187.757812 68.453125 187.757812 65.851562 C 187.757812 63.246094 188.566406 61.089844 190.1875 59.382812 C 191.808594 57.675781 193.882812 56.871094 196.492188 56.871094 C 199.105469 56.871094 200.09375 57.046875 202.976562 58.035156 L 202.976562 53.367188 C 202.257812 53.097656 201.355469 52.917969 200.367188 52.648438 C 199.105469 52.378906 197.664062 52.199219 196.042969 52.199219 C 191.539062 52.199219 187.9375 53.457031 185.234375 55.882812 C 182.535156 58.394531 181.183594 61.71875 181.183594 65.941406 C 181.183594 70.160156 182.535156 73.394531 185.144531 75.816406 C 187.847656 78.152344 191.449219 79.410156 196.042969 79.410156 C 200.636719 79.410156 198.746094 79.320312 200.003906 79.050781 C 200.996094 78.871094 201.988281 78.691406 202.796875 78.421875 L 202.796875 73.664062 Z M 202.976562 73.753906 " fill-opacity="1" fill-rule="nonzero"/></g></svg>