<svg xmlns="http://www.w3.org/2000/svg" xmlns:xlink="http://www.w3.org/1999/xlink" width="326" zoomAndPan="magnify" viewBox="0 0 244.5 131.999998" height="176" preserveAspectRatio="xMidYMid meet" version="1.0"><defs><clipPath id="c0e133553e"><path d="M 11.8125 19.078125 L 232.6875 19.078125 L 232.6875 113.191406 L 11.8125 113.191406 Z M 11.8125 19.078125 " clip-rule="nonzero"/></clipPath><clipPath id="2e48d30912"><path d="M 122.25 19.078125 C 61.257812 19.078125 11.8125 40.144531 11.8125 66.132812 C 11.8125 92.125 61.257812 113.191406 122.25 113.191406 C 183.242188 113.191406 232.6875 92.125 232.6875 66.132812 C 232.6875 40.144531 183.242188 19.078125 122.25 19.078125 Z M 122.25 19.078125 " clip-rule="nonzero"/></clipPath><clipPath id="13a8527073"><path d="M 45.203125 41.058594 L 198.953125 41.058594 L 198.953125 74 L 45.203125 74 Z M 45.203125 41.058594 " clip-rule="nonzero"/></clipPath><clipPath id="76adab31a5"><path d="M 45.203125 77 L 50 77 L 50 83 L 45.203125 83 Z M 45.203125 77 " clip-rule="nonzero"/></clipPath><clipPath id="115e6a4ec7"><path d="M 195 77 L 198.953125 77 L 198.953125 83 L 195 83 Z M 195 77 " clip-rule="nonzero"/></clipPath><clipPath id="58e66afd37"><path d="M 45.203125 87 L 49 87 L 49 91.308594 L 45.203125 91.308594 Z M 45.203125 87 " clip-rule="nonzero"/></clipPath><clipPath id="d01449a043"><path d="M 49 87 L 52 87 L 52 91.308594 L 49 91.308594 Z M 49 87 " clip-rule="nonzero"/></clipPath><clipPath id="5fb1c262d0"><path d="M 53 87 L 57 87 L 57 91.308594 L 53 91.308594 Z M 53 87 " clip-rule="nonzero"/></clipPath><clipPath id="00dc2f02c9"><path d="M 57 87 L 61 87 L 61 91.308594 L 57 91.308594 Z M 57 87 " clip-rule="nonzero"/></clipPath><clipPath id="871893bc82"><path d="M 61 87 L 64 87 L 64 91.308594 L 61 91.308594 Z M 61 87 " clip-rule="nonzero"/></clipPath><clipPath id="d704300a8b"><path d="M 65 87 L 68 87 L 68 91.308594 L 65 91.308594 Z M 65 87 " clip-rule="nonzero"/></clipPath><clipPath id="ee8e4a46ff"><path d="M 71 87 L 75 87 L 75 91.308594 L 71 91.308594 Z M 71 87 " clip-rule="nonzero"/></clipPath><clipPath id="fdadb1f264"><path d="M 75 87 L 79 87 L 79 91.308594 L 75 91.308594 Z M 75 87 " clip-rule="nonzero"/></clipPath><clipPath id="dd3243798e"><path d="M 79 87 L 84 87 L 84 91.308594 L 79 91.308594 Z M 79 87 " clip-rule="nonzero"/></clipPath><clipPath id="87cb5f1dd3"><path d="M 84 87 L 88 87 L 88 91.308594 L 84 91.308594 Z M 84 87 " clip-rule="nonzero"/></clipPath><clipPath id="5bd2630b08"><path d="M 88 87 L 92 87 L 92 91.308594 L 88 91.308594 Z M 88 87 " clip-rule="nonzero"/></clipPath><clipPath id="d88f35dded"><path d="M 94 87 L 98 87 L 98 91.308594 L 94 91.308594 Z M 94 87 " clip-rule="nonzero"/></clipPath><clipPath id="4cd89def26"><path d="M 99 87 L 102 87 L 102 91.308594 L 99 91.308594 Z M 99 87 " clip-rule="nonzero"/></clipPath><clipPath id="56d3812ff2"><path d="M 103 87 L 106 87 L 106 91.308594 L 103 91.308594 Z M 103 87 " clip-rule="nonzero"/></clipPath><clipPath id="dacd2ef73d"><path d="M 106 87 L 110 87 L 110 91.308594 L 106 91.308594 Z M 106 87 " clip-rule="nonzero"/></clipPath><clipPath id="e325eef81d"><path d="M 111 87 L 114 87 L 114 91.308594 L 111 91.308594 Z M 111 87 " clip-rule="nonzero"/></clipPath><clipPath id="4a512aaf9e"><path d="M 114 87 L 118 87 L 118 91.308594 L 114 91.308594 Z M 114 87 " clip-rule="nonzero"/></clipPath><clipPath id="a2097581a7"><path d="M 119 87 L 120 87 L 120 91.308594 L 119 91.308594 Z M 119 87 " clip-rule="nonzero"/></clipPath><clipPath id="2cabc7b44a"><path d="M 121 87 L 124 87 L 124 91.308594 L 121 91.308594 Z M 121 87 " clip-rule="nonzero"/></clipPath><clipPath id="682c0502b8"><path d="M 124 87 L 128 87 L 128 91.308594 L 124 91.308594 Z M 124 87 " clip-rule="nonzero"/></clipPath><clipPath id="72b24b00a8"><path d="M 129 87 L 132 87 L 132 91.308594 L 129 91.308594 Z M 129 87 " clip-rule="nonzero"/></clipPath><clipPath id="db76c5eb64"><path d="M 134 87 L 138 87 L 138 91.308594 L 134 91.308594 Z M 134 87 " clip-rule="nonzero"/></clipPath><clipPath id="6b35642be1"><path d="M 138 87 L 142 87 L 142 91.308594 L 138 91.308594 Z M 138 87 " clip-rule="nonzero"/></clipPath><clipPath id="fb2fb3ef7e"><path d="M 142 87 L 145 87 L 145 91.308594 L 142 91.308594 Z M 142 87 " clip-rule="nonzero"/></clipPath><clipPath id="11328ed6ce"><path d="M 146 87 L 149 87 L 149 91.308594 L 146 91.308594 Z M 146 87 " clip-rule="nonzero"/></clipPath><clipPath id="de0377e3ed"><path d="M 150 87 L 153 87 L 153 91.308594 L 150 91.308594 Z M 150 87 " clip-rule="nonzero"/></clipPath><clipPath id="7b1f41ecaf"><path d="M 154 87 L 157 87 L 157 91.308594 L 154 91.308594 Z M 154 87 " clip-rule="nonzero"/></clipPath><clipPath id="9d32f41444"><path d="M 159 87 L 163 87 L 163 91.308594 L 159 91.308594 Z M 159 87 " clip-rule="nonzero"/></clipPath><clipPath id="189120561c"><path d="M 163 87 L 167 87 L 167 91.308594 L 163 91.308594 Z M 163 87 " clip-rule="nonzero"/></clipPath><clipPath id="71adf1a1a6"><path d="M 167 87 L 171 87 L 171 91.308594 L 167 91.308594 Z M 167 87 " clip-rule="nonzero"/></clipPath><clipPath id="c97d99a5a7"><path d="M 171 87 L 175 87 L 175 91.308594 L 171 91.308594 Z M 171 87 " clip-rule="nonzero"/></clipPath><clipPath id="03d005f1a4"><path d="M 175 87 L 179 87 L 179 91.308594 L 175 91.308594 Z M 175 87 " clip-rule="nonzero"/></clipPath><clipPath id="3261e0928d"><path d="M 180 87 L 183 87 L 183 91.308594 L 180 91.308594 Z M 180 87 " clip-rule="nonzero"/></clipPath><clipPath id="eaff3d88eb"><path d="M 184 87 L 187 87 L 187 91.308594 L 184 91.308594 Z M 184 87 " clip-rule="nonzero"/></clipPath><clipPath id="44a67fc5ac"><path d="M 187 87 L 191 87 L 191 91.308594 L 187 91.308594 Z M 187 87 " clip-rule="nonzero"/></clipPath><clipPath id="8b4353b7a7"><path d="M 191 87 L 195 87 L 195 91.308594 L 191 91.308594 Z M 191 87 " clip-rule="nonzero"/></clipPath><clipPath id="dfe9c252e3"><path d="M 195 87 L 198.953125 87 L 198.953125 91.308594 L 195 91.308594 Z M 195 87 " clip-rule="nonzero"/></clipPath></defs><g clip-path="url(#c0e133553e)"><g clip-path="url(#2e48d30912)"><path fill="#bce6ff" d="M 11.8125 19.078125 L 232.6875 19.078125 L 232.6875 113.191406 L 11.8125 113.191406 Z M 11.8125 19.078125 " fill-opacity="1" fill-rule="nonzero"/></g></g><g clip-path="url(#13a8527073)"><path fill="#025183" d="M 70.207031 71.449219 L 70.207031 67.285156 L 68.648438 67.285156 C 68.398438 67.285156 68.15625 67.234375 67.921875 67.140625 C 67.6875 67.042969 67.484375 66.90625 67.304688 66.726562 C 67.125 66.546875 66.988281 66.339844 66.890625 66.105469 C 66.792969 65.871094 66.746094 65.628906 66.746094 65.375 C 66.746094 65.121094 66.792969 64.878906 66.890625 64.644531 C 66.988281 64.410156 67.125 64.203125 67.304688 64.023438 C 67.484375 63.84375 67.6875 63.707031 67.921875 63.609375 C 68.15625 63.511719 68.398438 63.464844 68.648438 63.464844 L 72.105469 63.464844 C 70.851562 61.785156 70.21875 59.894531 70.207031 57.796875 C 70.191406 55.6875 70.824219 53.796875 72.105469 52.125 L 68.648438 52.125 C 68.398438 52.125 68.15625 52.078125 67.921875 51.980469 C 67.6875 51.882812 67.484375 51.746094 67.304688 51.566406 C 67.125 51.386719 66.988281 51.183594 66.890625 50.949219 C 66.796875 50.714844 66.746094 50.46875 66.746094 50.21875 C 66.746094 49.964844 66.796875 49.71875 66.890625 49.484375 C 66.988281 49.25 67.125 49.046875 67.304688 48.867188 C 67.484375 48.6875 67.6875 48.550781 67.921875 48.453125 C 68.15625 48.355469 68.398438 48.308594 68.648438 48.308594 L 79.652344 48.308594 C 80.273438 48.308594 80.886719 48.367188 81.496094 48.488281 C 82.105469 48.613281 82.695312 48.792969 83.269531 49.03125 C 83.839844 49.269531 84.386719 49.5625 84.902344 49.90625 C 85.417969 50.253906 85.894531 50.644531 86.332031 51.085938 C 86.773438 51.527344 87.164062 52.007812 87.507812 52.523438 C 87.851562 53.042969 88.144531 53.589844 88.382812 54.164062 C 88.617188 54.742188 88.796875 55.332031 88.917969 55.945312 C 89.039062 56.554688 89.101562 57.171875 89.101562 57.796875 C 89.101562 58.417969 89.039062 59.035156 88.917969 59.648438 C 88.796875 60.257812 88.617188 60.851562 88.382812 61.425781 C 88.144531 62.003906 87.851562 62.550781 87.507812 63.066406 C 87.164062 63.585938 86.773438 64.066406 86.332031 64.503906 C 85.894531 64.945312 85.417969 65.339844 84.902344 65.683594 C 84.386719 66.03125 83.839844 66.324219 83.269531 66.5625 C 82.695312 66.800781 82.105469 66.980469 81.496094 67.101562 C 80.886719 67.222656 80.273438 67.285156 79.652344 67.285156 L 74.066406 67.285156 L 74.066406 71.449219 C 74.066406 71.707031 74.015625 71.953125 73.917969 72.191406 C 73.820312 72.429688 73.679688 72.636719 73.5 72.820312 C 73.320312 73 73.109375 73.140625 72.875 73.238281 C 72.636719 73.339844 72.390625 73.386719 72.136719 73.386719 C 71.878906 73.386719 71.632812 73.339844 71.398438 73.238281 C 71.160156 73.140625 70.953125 73 70.769531 72.820312 C 70.589844 72.636719 70.449219 72.429688 70.351562 72.191406 C 70.253906 71.953125 70.207031 71.707031 70.207031 71.449219 Z M 93.707031 65.144531 C 92.152344 63.640625 91.40625 61.613281 91.40625 59.070312 L 91.40625 50.101562 C 91.40625 49.847656 91.457031 49.605469 91.554688 49.375 C 91.652344 49.140625 91.789062 48.933594 91.964844 48.757812 C 92.144531 48.578125 92.347656 48.441406 92.582031 48.34375 C 92.8125 48.246094 93.054688 48.195312 93.304688 48.191406 C 93.554688 48.1875 93.792969 48.230469 94.023438 48.324219 C 94.253906 48.414062 94.460938 48.546875 94.640625 48.722656 C 94.816406 48.894531 94.957031 49.097656 95.054688 49.324219 C 95.152344 49.554688 95.203125 49.792969 95.207031 50.042969 L 95.207031 58.605469 C 95.160156 59.300781 95.25 59.980469 95.46875 60.640625 C 95.6875 61.300781 96.023438 61.894531 96.472656 62.425781 C 96.699219 62.644531 96.941406 62.839844 97.207031 63.015625 C 97.46875 63.1875 97.746094 63.332031 98.039062 63.453125 C 98.328125 63.570312 98.628906 63.660156 98.9375 63.722656 C 99.246094 63.78125 99.558594 63.8125 99.871094 63.8125 C 100.1875 63.8125 100.5 63.78125 100.808594 63.722656 C 101.117188 63.660156 101.414062 63.570312 101.707031 63.453125 C 102 63.332031 102.277344 63.1875 102.539062 63.015625 C 102.800781 62.839844 103.046875 62.644531 103.269531 62.425781 C 104.179688 61.3125 104.601562 60.042969 104.539062 58.605469 L 104.539062 50.042969 C 104.546875 49.796875 104.601562 49.558594 104.699219 49.332031 C 104.800781 49.105469 104.9375 48.90625 105.117188 48.730469 C 105.292969 48.558594 105.496094 48.425781 105.726562 48.332031 C 105.953125 48.238281 106.191406 48.191406 106.441406 48.191406 C 106.6875 48.1875 106.925781 48.230469 107.160156 48.324219 C 107.390625 48.414062 107.59375 48.546875 107.773438 48.722656 C 107.949219 48.894531 108.089844 49.097656 108.1875 49.324219 C 108.285156 49.554688 108.335938 49.792969 108.339844 50.042969 L 108.339844 59.125 C 108.339844 61.671875 107.589844 63.695312 106.035156 65.203125 C 104.480469 66.707031 102.464844 67.457031 99.871094 67.457031 C 97.28125 67.457031 95.265625 66.707031 93.707031 65.144531 Z M 186.914062 66.128906 L 178.390625 45.183594 C 178.332031 45.125 178.332031 45.011719 178.273438 44.953125 L 178.332031 45.011719 L 178.160156 44.316406 C 178.160156 44.046875 178.214844 43.792969 178.320312 43.542969 C 178.421875 43.296875 178.566406 43.082031 178.757812 42.890625 C 178.945312 42.703125 179.160156 42.554688 179.40625 42.453125 C 179.652344 42.347656 179.910156 42.292969 180.175781 42.289062 C 180.609375 42.289062 181 42.417969 181.351562 42.671875 C 181.703125 42.929688 181.945312 43.265625 182.074219 43.679688 L 188.644531 60.457031 L 194.980469 43.851562 C 195.039062 43.613281 195.136719 43.390625 195.277344 43.1875 C 195.414062 42.984375 195.585938 42.8125 195.785156 42.671875 C 195.988281 42.53125 196.207031 42.429688 196.445312 42.371094 C 196.683594 42.308594 196.925781 42.292969 197.171875 42.320312 C 197.414062 42.351562 197.644531 42.421875 197.863281 42.535156 C 198.082031 42.648438 198.273438 42.796875 198.4375 42.980469 C 198.601562 43.164062 198.730469 43.371094 198.816406 43.601562 C 198.90625 43.832031 198.953125 44.070312 198.953125 44.316406 L 198.839844 44.894531 L 198.898438 44.777344 C 198.84375 44.964844 198.765625 45.136719 198.667969 45.300781 L 190.488281 65.953125 C 190.367188 66.382812 190.132812 66.730469 189.777344 67 C 189.425781 67.265625 189.027344 67.402344 188.585938 67.398438 C 188.207031 67.375 187.863281 67.246094 187.558594 67.015625 C 187.257812 66.785156 187.042969 66.488281 186.914062 66.128906 Z M 47.394531 65.203125 C 46.417969 64.371094 45.726562 63.351562 45.320312 62.136719 C 45.253906 61.910156 45.214844 61.675781 45.203125 61.441406 C 45.203125 61.199219 45.246094 60.96875 45.328125 60.742188 C 45.40625 60.515625 45.527344 60.3125 45.679688 60.128906 C 45.835938 59.945312 46.015625 59.792969 46.226562 59.675781 C 46.433594 59.558594 46.65625 59.480469 46.890625 59.441406 C 47.128906 59.402344 47.363281 59.40625 47.597656 59.453125 C 47.832031 59.5 48.054688 59.585938 48.257812 59.710938 C 48.460938 59.835938 48.636719 59.992188 48.785156 60.179688 C 48.933594 60.367188 49.046875 60.574219 49.121094 60.804688 C 49.371094 61.460938 49.773438 62 50.332031 62.425781 C 51.410156 63.230469 52.617188 63.597656 53.960938 63.523438 C 55.195312 63.550781 56.328125 63.222656 57.359375 62.539062 C 57.800781 62.257812 58.144531 61.886719 58.390625 61.421875 C 58.636719 60.957031 58.753906 60.460938 58.742188 59.9375 C 58.75 59.703125 58.730469 59.472656 58.683594 59.242188 C 58.640625 59.035156 58.566406 58.84375 58.453125 58.664062 C 58.351562 58.5 58.238281 58.34375 58.109375 58.199219 C 57.96875 58.050781 57.8125 57.917969 57.648438 57.796875 C 57.457031 57.707031 57.285156 57.589844 57.128906 57.449219 C 56.917969 57.308594 56.6875 57.210938 56.4375 57.160156 C 56.148438 57.042969 55.917969 56.984375 55.746094 56.929688 C 55.574219 56.871094 55.285156 56.8125 54.941406 56.695312 C 54.59375 56.582031 54.304688 56.523438 54.132812 56.464844 C 53.960938 56.40625 53.671875 56.347656 53.269531 56.234375 C 51.753906 55.886719 50.277344 55.425781 48.832031 54.84375 C 47.894531 54.449219 47.113281 53.839844 46.496094 53.023438 C 45.878906 52.207031 45.507812 51.292969 45.378906 50.273438 C 45.328125 49.949219 45.308594 49.621094 45.320312 49.292969 C 45.265625 48.304688 45.441406 47.359375 45.847656 46.460938 C 46.257812 45.5625 46.847656 44.808594 47.625 44.199219 C 49.121094 42.984375 51.195312 42.347656 53.789062 42.347656 C 56.378906 42.347656 58.453125 42.984375 59.894531 44.316406 C 60.902344 45.226562 61.554688 46.34375 61.851562 47.671875 C 61.898438 47.820312 61.917969 47.976562 61.910156 48.132812 C 61.914062 48.394531 61.863281 48.648438 61.765625 48.890625 C 61.667969 49.132812 61.527344 49.34375 61.339844 49.53125 C 61.15625 49.714844 60.945312 49.855469 60.703125 49.957031 C 60.460938 50.054688 60.210938 50.101562 59.953125 50.101562 C 59.519531 50.09375 59.132812 49.964844 58.78125 49.707031 C 58.433594 49.453125 58.191406 49.121094 58.050781 48.710938 C 57.863281 48 57.480469 47.421875 56.898438 46.976562 C 55.933594 46.28125 54.859375 45.953125 53.671875 45.992188 C 52.539062 45.964844 51.484375 46.234375 50.503906 46.804688 C 50.097656 47.027344 49.777344 47.34375 49.550781 47.75 C 49.324219 48.15625 49.21875 48.59375 49.238281 49.058594 C 49.234375 49.398438 49.289062 49.726562 49.410156 50.042969 C 49.53125 50.363281 49.722656 50.636719 49.984375 50.851562 C 50.242188 51.066406 50.507812 51.257812 50.792969 51.433594 C 51.160156 51.625 51.542969 51.78125 51.945312 51.894531 C 52.339844 52.035156 52.742188 52.148438 53.152344 52.242188 C 53.609375 52.386719 54.070312 52.5 54.535156 52.589844 C 56.082031 52.925781 57.578125 53.40625 59.03125 54.035156 C 61.105469 55.078125 62.3125 56.582031 62.660156 58.664062 C 62.707031 59.046875 62.726562 59.433594 62.714844 59.820312 C 62.75 61.300781 62.347656 62.652344 61.507812 63.871094 C 60.699219 65.027344 59.640625 65.878906 58.339844 66.417969 C 56.914062 66.996094 55.4375 67.265625 53.902344 67.226562 C 51.253906 67.34375 49.0625 66.648438 47.394531 65.203125 Z M 167.558594 66.242188 L 162.488281 59.011719 L 160.1875 59.011719 L 160.1875 65.085938 C 160.1875 65.339844 160.136719 65.582031 160.039062 65.816406 C 159.945312 66.050781 159.808594 66.257812 159.628906 66.4375 C 159.449219 66.613281 159.246094 66.753906 159.011719 66.847656 C 158.777344 66.945312 158.535156 66.996094 158.285156 66.996094 C 158.03125 66.996094 157.789062 66.945312 157.558594 66.847656 C 157.324219 66.753906 157.117188 66.613281 156.941406 66.4375 C 156.761719 66.257812 156.625 66.050781 156.527344 65.816406 C 156.433594 65.582031 156.382812 65.339844 156.382812 65.085938 L 156.382812 43.390625 C 156.382812 43.136719 156.433594 42.894531 156.527344 42.660156 C 156.625 42.425781 156.761719 42.21875 156.941406 42.039062 C 157.117188 41.859375 157.324219 41.722656 157.558594 41.625 C 157.789062 41.53125 158.03125 41.480469 158.285156 41.480469 C 158.535156 41.480469 158.777344 41.53125 159.011719 41.625 C 159.246094 41.722656 159.449219 41.859375 159.628906 42.039062 C 159.808594 42.21875 159.945312 42.425781 160.039062 42.660156 C 160.136719 42.894531 160.1875 43.136719 160.1875 43.390625 L 160.1875 55.480469 L 162.546875 55.480469 L 167.097656 48.886719 C 167.46875 48.375 167.96875 48.105469 168.597656 48.078125 C 168.839844 48.074219 169.078125 48.117188 169.304688 48.210938 C 169.53125 48.304688 169.734375 48.4375 169.90625 48.613281 C 170.082031 48.785156 170.214844 48.988281 170.304688 49.214844 C 170.398438 49.445312 170.441406 49.679688 170.441406 49.925781 C 170.449219 50.316406 170.335938 50.664062 170.09375 50.96875 L 165.714844 57.160156 L 170.496094 63.8125 C 170.800781 64.160156 170.953125 64.566406 170.957031 65.027344 C 170.957031 65.28125 170.90625 65.523438 170.808594 65.753906 C 170.710938 65.988281 170.574219 66.195312 170.394531 66.371094 C 170.21875 66.550781 170.015625 66.691406 169.78125 66.789062 C 169.550781 66.886719 169.308594 66.933594 169.058594 66.9375 C 168.761719 66.972656 168.480469 66.925781 168.210938 66.800781 C 167.941406 66.675781 167.722656 66.492188 167.558594 66.242188 Z M 121.589844 66.996094 L 120.609375 66.996094 C 119.714844 67.042969 118.847656 66.910156 118.007812 66.597656 C 117.167969 66.289062 116.421875 65.820312 115.773438 65.203125 C 115.164062 64.542969 114.707031 63.792969 114.398438 62.949219 C 114.089844 62.109375 113.953125 61.238281 113.984375 60.339844 L 113.984375 51.605469 L 110.703125 51.605469 L 110.703125 50.851562 L 117.210938 43.910156 L 117.84375 43.910156 L 117.84375 48.25 L 121.648438 48.25 C 121.863281 48.25 122.066406 48.289062 122.265625 48.371094 C 122.464844 48.453125 122.636719 48.570312 122.789062 48.722656 C 122.941406 48.875 123.058594 49.050781 123.140625 49.25 C 123.222656 49.449219 123.261719 49.65625 123.261719 49.871094 C 123.261719 50.085938 123.222656 50.292969 123.140625 50.488281 C 123.058594 50.6875 122.941406 50.863281 122.789062 51.015625 C 122.636719 51.167969 122.464844 51.285156 122.265625 51.367188 C 122.066406 51.449219 121.863281 51.488281 121.648438 51.488281 L 117.84375 51.488281 L 117.84375 59.9375 C 117.78125 60.9375 118.089844 61.804688 118.765625 62.539062 C 119.5 63.214844 120.367188 63.523438 121.359375 63.464844 L 121.761719 63.464844 C 121.988281 63.472656 122.207031 63.519531 122.417969 63.609375 C 122.625 63.699219 122.8125 63.824219 122.972656 63.988281 C 123.132812 64.148438 123.257812 64.332031 123.347656 64.542969 C 123.4375 64.753906 123.484375 64.972656 123.492188 65.203125 C 123.488281 65.429688 123.445312 65.652344 123.359375 65.863281 C 123.269531 66.078125 123.144531 66.265625 122.984375 66.425781 C 122.820312 66.589844 122.632812 66.714844 122.421875 66.804688 C 122.210938 66.890625 121.992188 66.9375 121.761719 66.9375 L 121.703125 66.9375 C 121.648438 66.996094 121.648438 66.996094 121.589844 66.996094 Z M 127.175781 65.144531 L 127.175781 48.25 L 129.828125 48.25 L 130.578125 50.851562 C 131.304688 49.863281 132.226562 49.109375 133.339844 48.597656 C 134.511719 48.050781 135.738281 47.78125 137.027344 47.785156 C 138.003906 47.75 138.941406 47.925781 139.835938 48.308594 C 140.734375 48.695312 141.507812 49.253906 142.15625 49.984375 C 142.8125 50.777344 143.304688 51.664062 143.632812 52.640625 C 143.960938 53.621094 144.101562 54.625 144.054688 55.65625 L 144.054688 65.085938 C 144.054688 65.339844 144.007812 65.582031 143.910156 65.816406 C 143.816406 66.050781 143.675781 66.257812 143.5 66.4375 C 143.320312 66.613281 143.117188 66.753906 142.882812 66.847656 C 142.648438 66.945312 142.40625 66.996094 142.15625 66.996094 C 141.902344 66.996094 141.660156 66.945312 141.425781 66.847656 C 141.195312 66.753906 140.988281 66.613281 140.8125 66.4375 C 140.632812 66.257812 140.496094 66.050781 140.398438 65.816406 C 140.300781 65.582031 140.253906 65.339844 140.253906 65.085938 L 140.253906 56.523438 C 140.253906 54.84375 139.910156 53.515625 139.160156 52.648438 C 138.761719 52.195312 138.28125 51.851562 137.726562 51.617188 C 137.171875 51.386719 136.59375 51.285156 135.992188 51.316406 C 135.304688 51.292969 134.644531 51.425781 134.019531 51.710938 C 133.390625 51.996094 132.859375 52.402344 132.417969 52.9375 C 131.4375 54.105469 130.976562 55.457031 131.039062 56.984375 L 131.039062 65.144531 C 131.023438 65.390625 130.96875 65.628906 130.863281 65.855469 C 130.761719 66.082031 130.621094 66.28125 130.441406 66.453125 C 130.261719 66.625 130.054688 66.757812 129.824219 66.851562 C 129.59375 66.941406 129.355469 66.988281 129.105469 66.988281 C 128.859375 66.988281 128.621094 66.941406 128.390625 66.851562 C 128.160156 66.757812 127.953125 66.625 127.773438 66.453125 C 127.59375 66.28125 127.453125 66.082031 127.351562 65.855469 C 127.246094 65.628906 127.191406 65.390625 127.175781 65.144531 Z M 148.03125 65.257812 L 148.03125 50.042969 C 148.054688 49.804688 148.117188 49.582031 148.222656 49.367188 C 148.332031 49.152344 148.472656 48.96875 148.648438 48.804688 C 148.824219 48.644531 149.023438 48.523438 149.242188 48.4375 C 149.464844 48.351562 149.695312 48.308594 149.933594 48.308594 C 150.167969 48.308594 150.398438 48.351562 150.621094 48.4375 C 150.84375 48.523438 151.039062 48.644531 151.214844 48.804688 C 151.390625 48.96875 151.535156 49.152344 151.640625 49.367188 C 151.746094 49.582031 151.808594 49.804688 151.832031 50.042969 L 151.832031 65.316406 C 151.808594 65.554688 151.742188 65.777344 151.636719 65.992188 C 151.527344 66.203125 151.386719 66.390625 151.210938 66.546875 C 151.035156 66.707031 150.839844 66.832031 150.617188 66.917969 C 150.398438 67.007812 150.167969 67.050781 149.933594 67.050781 C 149.695312 67.039062 149.464844 66.984375 149.246094 66.890625 C 149.027344 66.796875 148.832031 66.667969 148.65625 66.503906 C 148.484375 66.339844 148.34375 66.148438 148.234375 65.9375 C 148.128906 65.722656 148.058594 65.496094 148.03125 65.257812 Z M 85.355469 57.796875 C 85.355469 57.421875 85.320312 57.054688 85.246094 56.691406 C 85.175781 56.324219 85.066406 55.96875 84.925781 55.625 C 84.785156 55.28125 84.609375 54.957031 84.40625 54.644531 C 84.199219 54.335938 83.964844 54.050781 83.703125 53.785156 C 83.441406 53.523438 83.15625 53.289062 82.847656 53.082031 C 82.539062 52.875 82.214844 52.699219 81.871094 52.558594 C 81.527344 52.414062 81.175781 52.308594 80.8125 52.234375 C 80.449219 52.164062 80.082031 52.125 79.710938 52.125 C 79.339844 52.125 78.972656 52.164062 78.609375 52.234375 C 78.246094 52.308594 77.890625 52.414062 77.550781 52.558594 C 77.207031 52.699219 76.882812 52.875 76.574219 53.082031 C 76.265625 53.289062 75.980469 53.523438 75.71875 53.785156 C 75.457031 54.050781 75.222656 54.335938 75.015625 54.644531 C 74.808594 54.957031 74.636719 55.28125 74.496094 55.625 C 74.351562 55.96875 74.246094 56.324219 74.171875 56.691406 C 74.101562 57.054688 74.066406 57.421875 74.066406 57.796875 C 74.066406 58.167969 74.101562 58.535156 74.171875 58.902344 C 74.246094 59.265625 74.351562 59.621094 74.496094 59.964844 C 74.636719 60.308594 74.808594 60.636719 75.015625 60.945312 C 75.222656 61.253906 75.457031 61.542969 75.71875 61.804688 C 75.980469 62.066406 76.265625 62.304688 76.574219 62.511719 C 76.882812 62.71875 77.207031 62.890625 77.550781 63.035156 C 77.890625 63.175781 78.246094 63.285156 78.609375 63.355469 C 78.972656 63.429688 79.339844 63.464844 79.710938 63.464844 C 80.082031 63.464844 80.449219 63.429688 80.8125 63.355469 C 81.175781 63.28125 81.527344 63.175781 81.871094 63.03125 C 82.210938 62.890625 82.535156 62.714844 82.84375 62.507812 C 83.152344 62.300781 83.4375 62.066406 83.699219 61.800781 C 83.960938 61.539062 84.195312 61.253906 84.402344 60.945312 C 84.609375 60.632812 84.78125 60.308594 84.921875 59.964844 C 85.066406 59.621094 85.171875 59.265625 85.246094 58.902344 C 85.320312 58.535156 85.355469 58.167969 85.355469 57.796875 Z M 63.636719 58.027344 C 63.640625 57.773438 63.691406 57.53125 63.789062 57.300781 C 63.882812 57.066406 64.023438 56.859375 64.199219 56.683594 C 64.378906 56.503906 64.582031 56.367188 64.8125 56.269531 C 65.046875 56.171875 65.289062 56.121094 65.539062 56.117188 L 67.035156 56.117188 C 67.289062 56.117188 67.53125 56.167969 67.765625 56.261719 C 67.996094 56.359375 68.203125 56.5 68.382812 56.675781 C 68.558594 56.855469 68.695312 57.0625 68.792969 57.296875 C 68.890625 57.53125 68.9375 57.773438 68.9375 58.027344 C 68.9375 58.28125 68.890625 58.523438 68.792969 58.757812 C 68.695312 58.992188 68.558594 59.199219 68.382812 59.378906 C 68.203125 59.554688 67.996094 59.695312 67.765625 59.792969 C 67.53125 59.886719 67.289062 59.9375 67.035156 59.9375 L 65.539062 59.9375 C 65.289062 59.933594 65.046875 59.882812 64.8125 59.785156 C 64.582031 59.6875 64.378906 59.550781 64.199219 59.371094 C 64.023438 59.195312 63.882812 58.988281 63.789062 58.753906 C 63.691406 58.523438 63.640625 58.28125 63.636719 58.027344 Z M 147.628906 43.390625 C 147.628906 43.089844 147.683594 42.804688 147.796875 42.527344 C 147.914062 42.25 148.074219 42.007812 148.285156 41.792969 C 148.496094 41.582031 148.738281 41.421875 149.015625 41.304688 C 149.289062 41.191406 149.578125 41.132812 149.875 41.132812 C 150.171875 41.132812 150.457031 41.191406 150.734375 41.304688 C 151.007812 41.421875 151.253906 41.582031 151.460938 41.792969 C 151.671875 42.007812 151.835938 42.25 151.949219 42.527344 C 152.0625 42.804688 152.121094 43.089844 152.121094 43.390625 C 152.121094 43.6875 152.0625 43.976562 151.949219 44.253906 C 151.835938 44.53125 151.671875 44.773438 151.460938 44.984375 C 151.253906 45.195312 151.007812 45.359375 150.734375 45.476562 C 150.457031 45.589844 150.171875 45.644531 149.875 45.644531 C 149.578125 45.644531 149.289062 45.589844 149.015625 45.476562 C 148.738281 45.359375 148.496094 45.195312 148.285156 44.984375 C 148.074219 44.773438 147.914062 44.53125 147.796875 44.253906 C 147.683594 43.976562 147.628906 43.6875 147.628906 43.390625 Z M 147.628906 43.390625 " fill-opacity="1" fill-rule="evenodd"/></g><g clip-path="url(#76adab31a5)"><path fill="#025183" d="M 49.179688 78.507812 L 47.796875 78.507812 L 47.796875 82.382812 L 47.046875 82.382812 L 47.046875 78.507812 L 45.609375 78.507812 L 45.609375 77.871094 L 49.179688 77.871094 Z M 49.179688 78.507812 " fill-opacity="1" fill-rule="nonzero"/></g><path fill="#025183" d="M 54.132812 82.441406 L 53.328125 82.441406 L 53.328125 80.417969 L 51.3125 80.417969 L 51.3125 82.441406 L 50.503906 82.441406 L 50.503906 77.929688 L 51.3125 77.929688 L 51.3125 79.78125 L 53.328125 79.78125 L 53.328125 77.871094 L 54.132812 77.871094 Z M 54.132812 82.441406 " fill-opacity="1" fill-rule="nonzero"/><path fill="#025183" d="M 58.453125 80.417969 L 56.609375 80.417969 L 56.609375 81.804688 L 58.800781 81.804688 L 58.800781 82.441406 L 55.863281 82.441406 L 55.863281 77.929688 L 58.800781 77.929688 L 58.800781 78.566406 L 56.667969 78.566406 L 56.667969 79.78125 L 58.511719 79.78125 L 58.511719 80.417969 Z M 58.453125 80.417969 " fill-opacity="1" fill-rule="nonzero"/><path fill="#025183" d="M 65.078125 80.53125 L 63.292969 80.53125 L 63.292969 82.441406 L 62.484375 82.441406 L 62.484375 77.929688 L 65.367188 77.929688 L 65.367188 78.566406 L 63.292969 78.566406 L 63.292969 79.894531 L 65.078125 79.894531 Z M 65.078125 80.53125 " fill-opacity="1" fill-rule="nonzero"/><path fill="#025183" d="M 66.75 77.929688 L 67.554688 77.929688 L 67.554688 82.441406 L 66.75 82.441406 Z M 66.75 77.929688 " fill-opacity="1" fill-rule="nonzero"/><path fill="#025183" d="M 70.953125 80.707031 L 70.089844 80.707031 L 70.089844 82.441406 L 69.285156 82.441406 L 69.285156 77.929688 L 70.898438 77.929688 C 71.339844 77.902344 71.742188 78.019531 72.105469 78.277344 C 72.414062 78.554688 72.550781 78.902344 72.507812 79.316406 C 72.53125 79.597656 72.453125 79.851562 72.277344 80.070312 C 72.117188 80.292969 71.90625 80.445312 71.644531 80.53125 L 72.683594 82.441406 L 72.683594 82.5 L 71.816406 82.5 Z M 70.089844 80.070312 L 70.898438 80.070312 C 71.128906 80.082031 71.339844 80.023438 71.53125 79.894531 C 71.707031 79.769531 71.785156 79.59375 71.761719 79.375 C 71.773438 79.148438 71.695312 78.953125 71.53125 78.796875 C 71.339844 78.664062 71.128906 78.585938 70.898438 78.566406 L 70.089844 78.566406 Z M 70.089844 80.070312 " fill-opacity="1" fill-rule="nonzero"/><path fill="#025183" d="M 76.371094 81.285156 C 76.378906 81.085938 76.300781 80.933594 76.140625 80.820312 C 75.910156 80.660156 75.660156 80.542969 75.390625 80.476562 C 75.09375 80.378906 74.804688 80.261719 74.527344 80.128906 C 74.328125 80.027344 74.175781 79.886719 74.058594 79.699219 C 73.945312 79.511719 73.890625 79.304688 73.890625 79.085938 C 73.914062 78.710938 74.066406 78.402344 74.351562 78.160156 C 74.6875 77.882812 75.070312 77.765625 75.503906 77.8125 C 75.804688 77.816406 76.09375 77.875 76.371094 77.988281 C 76.617188 78.097656 76.808594 78.273438 76.945312 78.507812 C 77.074219 78.722656 77.152344 78.953125 77.175781 79.203125 L 76.371094 79.203125 C 76.382812 78.972656 76.304688 78.78125 76.140625 78.625 C 75.945312 78.496094 75.734375 78.4375 75.503906 78.449219 C 75.292969 78.4375 75.097656 78.492188 74.929688 78.625 C 74.792969 78.746094 74.714844 78.902344 74.699219 79.085938 C 74.691406 79.269531 74.765625 79.40625 74.929688 79.492188 C 75.164062 79.640625 75.414062 79.757812 75.679688 79.839844 C 75.972656 79.933594 76.261719 80.050781 76.542969 80.1875 C 76.738281 80.296875 76.894531 80.449219 77.003906 80.648438 C 77.132812 80.839844 77.1875 81.054688 77.175781 81.285156 C 77.203125 81.664062 77.070312 81.972656 76.773438 82.210938 C 76.429688 82.460938 76.042969 82.578125 75.621094 82.558594 C 75.300781 82.5625 74.996094 82.503906 74.699219 82.382812 C 74.433594 82.273438 74.222656 82.101562 74.066406 81.863281 C 73.898438 81.640625 73.820312 81.390625 73.835938 81.113281 L 74.640625 81.113281 C 74.617188 81.34375 74.695312 81.539062 74.871094 81.691406 C 75.097656 81.847656 75.347656 81.925781 75.621094 81.921875 C 75.851562 81.933594 76.0625 81.875 76.253906 81.746094 C 76.425781 81.632812 76.371094 81.457031 76.371094 81.285156 Z M 76.371094 81.285156 " fill-opacity="1" fill-rule="nonzero"/><path fill="#025183" d="M 81.839844 78.507812 L 80.460938 78.507812 L 80.460938 82.382812 L 79.710938 82.382812 L 79.710938 78.507812 L 78.328125 78.507812 L 78.328125 77.871094 L 81.898438 77.871094 L 81.898438 78.507812 Z M 81.839844 78.507812 " fill-opacity="1" fill-rule="nonzero"/><path fill="#025183" d="M 86.96875 80.707031 L 86.105469 80.707031 L 86.105469 82.441406 L 85.355469 82.441406 L 85.355469 77.929688 L 86.96875 77.929688 C 87.414062 77.902344 87.816406 78.019531 88.179688 78.277344 C 88.488281 78.554688 88.621094 78.902344 88.582031 79.316406 C 88.605469 79.597656 88.527344 79.851562 88.351562 80.070312 C 88.1875 80.292969 87.976562 80.445312 87.71875 80.53125 L 88.753906 82.441406 L 88.753906 82.5 L 87.890625 82.5 Z M 86.105469 80.070312 L 86.910156 80.070312 C 87.140625 80.082031 87.351562 80.023438 87.542969 79.894531 C 87.722656 79.769531 87.800781 79.59375 87.773438 79.375 C 87.785156 79.148438 87.710938 78.953125 87.542969 78.796875 C 87.355469 78.664062 87.140625 78.585938 86.910156 78.566406 L 86.105469 78.566406 Z M 86.105469 80.070312 " fill-opacity="1" fill-rule="nonzero"/><path fill="#025183" d="M 92.671875 80.417969 L 90.828125 80.417969 L 90.828125 81.804688 L 93.015625 81.804688 L 93.015625 82.441406 L 90.078125 82.441406 L 90.078125 77.929688 L 93.015625 77.929688 L 93.015625 78.566406 L 90.886719 78.566406 L 90.886719 79.78125 L 92.730469 79.78125 L 92.730469 80.417969 Z M 92.671875 80.417969 " fill-opacity="1" fill-rule="nonzero"/><path fill="#025183" d="M 97.855469 81.863281 C 97.671875 82.085938 97.441406 82.242188 97.164062 82.328125 C 96.847656 82.445312 96.523438 82.503906 96.1875 82.5 C 95.832031 82.523438 95.503906 82.445312 95.199219 82.265625 C 94.894531 82.085938 94.667969 81.835938 94.515625 81.515625 C 94.347656 81.167969 94.273438 80.800781 94.285156 80.417969 L 94.285156 80.070312 C 94.261719 79.480469 94.414062 78.9375 94.746094 78.449219 C 95.113281 78.03125 95.574219 77.839844 96.128906 77.871094 C 96.570312 77.84375 96.976562 77.960938 97.335938 78.21875 C 97.65625 78.515625 97.828125 78.882812 97.855469 79.316406 L 97.105469 79.316406 C 97.085938 79.082031 96.988281 78.882812 96.808594 78.726562 C 96.628906 78.570312 96.421875 78.496094 96.1875 78.507812 C 95.835938 78.480469 95.566406 78.613281 95.378906 78.914062 C 95.167969 79.25 95.074219 79.617188 95.089844 80.011719 L 95.089844 80.359375 C 95.082031 80.769531 95.179688 81.15625 95.378906 81.515625 C 95.597656 81.800781 95.886719 81.9375 96.242188 81.921875 C 96.570312 81.945312 96.859375 81.847656 97.105469 81.632812 L 97.105469 80.765625 L 96.1875 80.765625 L 96.1875 80.1875 L 97.914062 80.1875 L 97.914062 81.863281 Z M 97.855469 81.863281 " fill-opacity="1" fill-rule="nonzero"/><path fill="#025183" d="M 99.46875 77.929688 L 100.277344 77.929688 L 100.277344 82.441406 L 99.46875 82.441406 Z M 99.46875 77.929688 " fill-opacity="1" fill-rule="nonzero"/><path fill="#025183" d="M 104.367188 81.285156 C 104.375 81.085938 104.296875 80.933594 104.136719 80.820312 C 103.90625 80.660156 103.65625 80.542969 103.386719 80.476562 C 103.089844 80.378906 102.800781 80.261719 102.523438 80.128906 C 102.328125 80.027344 102.171875 79.886719 102.058594 79.699219 C 101.941406 79.511719 101.886719 79.304688 101.886719 79.085938 C 101.910156 78.710938 102.0625 78.402344 102.347656 78.160156 C 102.683594 77.882812 103.070312 77.765625 103.5 77.8125 C 103.800781 77.816406 104.089844 77.875 104.367188 77.988281 C 104.613281 78.097656 104.804688 78.273438 104.941406 78.507812 C 105.070312 78.722656 105.148438 78.953125 105.171875 79.203125 L 104.367188 79.203125 C 104.378906 78.972656 104.300781 78.78125 104.136719 78.625 C 103.941406 78.496094 103.730469 78.4375 103.5 78.449219 C 103.289062 78.4375 103.097656 78.492188 102.925781 78.625 C 102.789062 78.746094 102.710938 78.902344 102.695312 79.085938 C 102.6875 79.269531 102.765625 79.40625 102.925781 79.492188 C 103.160156 79.640625 103.410156 79.757812 103.675781 79.839844 C 103.96875 79.933594 104.257812 80.050781 104.539062 80.1875 C 104.734375 80.296875 104.890625 80.449219 105 80.648438 C 105.128906 80.839844 105.183594 81.054688 105.171875 81.285156 C 105.199219 81.664062 105.066406 81.972656 104.769531 82.210938 C 104.425781 82.460938 104.039062 82.578125 103.617188 82.558594 C 103.296875 82.5625 102.992188 82.503906 102.695312 82.382812 C 102.429688 82.273438 102.21875 82.101562 102.0625 81.863281 C 101.894531 81.640625 101.816406 81.390625 101.832031 81.113281 L 102.636719 81.113281 C 102.613281 81.34375 102.691406 81.539062 102.867188 81.691406 C 103.09375 81.847656 103.34375 81.925781 103.617188 81.921875 C 103.847656 81.933594 104.058594 81.875 104.25 81.746094 C 104.421875 81.632812 104.367188 81.457031 104.367188 81.285156 Z M 104.367188 81.285156 " fill-opacity="1" fill-rule="nonzero"/><path fill="#025183" d="M 109.839844 78.507812 L 108.457031 78.507812 L 108.457031 82.382812 L 107.707031 82.382812 L 107.707031 78.507812 L 106.324219 78.507812 L 106.324219 77.871094 L 109.894531 77.871094 L 109.894531 78.507812 Z M 109.839844 78.507812 " fill-opacity="1" fill-rule="nonzero"/><path fill="#025183" d="M 113.871094 80.417969 L 112.027344 80.417969 L 112.027344 81.804688 L 114.214844 81.804688 L 114.214844 82.441406 L 111.277344 82.441406 L 111.277344 77.929688 L 114.214844 77.929688 L 114.214844 78.566406 L 112.085938 78.566406 L 112.085938 79.78125 L 113.929688 79.78125 L 113.929688 80.417969 Z M 113.871094 80.417969 " fill-opacity="1" fill-rule="nonzero"/><path fill="#025183" d="M 117.210938 80.707031 L 116.347656 80.707031 L 116.347656 82.441406 L 115.542969 82.441406 L 115.542969 77.929688 L 117.152344 77.929688 C 117.597656 77.902344 118 78.019531 118.363281 78.277344 C 118.671875 78.554688 118.808594 78.902344 118.765625 79.316406 C 118.789062 79.597656 118.710938 79.851562 118.535156 80.070312 C 118.375 80.292969 118.164062 80.445312 117.902344 80.53125 L 118.941406 82.441406 L 118.941406 82.5 L 118.074219 82.5 Z M 116.347656 80.070312 L 117.152344 80.070312 C 117.382812 80.082031 117.597656 80.023438 117.789062 79.894531 C 117.964844 79.769531 118.042969 79.59375 118.019531 79.375 C 118.03125 79.148438 117.953125 78.953125 117.789062 78.796875 C 117.597656 78.664062 117.386719 78.585938 117.152344 78.566406 L 116.347656 78.566406 Z M 116.347656 80.070312 " fill-opacity="1" fill-rule="nonzero"/><path fill="#025183" d="M 122.914062 80.417969 L 121.070312 80.417969 L 121.070312 81.804688 L 123.261719 81.804688 L 123.261719 82.441406 L 120.324219 82.441406 L 120.324219 77.929688 L 123.261719 77.929688 L 123.261719 78.566406 L 121.070312 78.566406 L 121.070312 79.78125 L 122.914062 79.78125 Z M 122.914062 80.417969 " fill-opacity="1" fill-rule="nonzero"/><path fill="#025183" d="M 124.585938 82.441406 L 124.585938 77.929688 L 125.910156 77.929688 C 126.28125 77.929688 126.628906 78.023438 126.945312 78.21875 C 127.253906 78.398438 127.484375 78.648438 127.636719 78.972656 C 127.804688 79.316406 127.882812 79.683594 127.867188 80.070312 L 127.867188 80.300781 C 127.882812 80.707031 127.804688 81.089844 127.636719 81.457031 C 127.476562 81.796875 127.226562 82.050781 126.890625 82.210938 C 126.550781 82.402344 126.183594 82.5 125.796875 82.5 L 124.585938 82.5 Z M 125.390625 78.507812 L 125.390625 81.746094 L 125.910156 81.746094 C 126.292969 81.789062 126.601562 81.65625 126.832031 81.34375 C 127.089844 81.023438 127.207031 80.65625 127.175781 80.242188 L 127.175781 80.011719 C 127.207031 79.601562 127.089844 79.234375 126.832031 78.914062 C 126.582031 78.644531 126.277344 78.507812 125.910156 78.507812 Z M 125.390625 78.507812 " fill-opacity="1" fill-rule="nonzero"/><path fill="#025183" d="M 135.300781 80.9375 C 135.257812 81.382812 135.085938 81.769531 134.78125 82.09375 C 134.433594 82.390625 134.027344 82.527344 133.570312 82.5 C 133.238281 82.519531 132.933594 82.445312 132.648438 82.269531 C 132.359375 82.085938 132.148438 81.832031 132.015625 81.515625 C 131.84375 81.171875 131.765625 80.804688 131.785156 80.417969 L 131.785156 80.011719 C 131.765625 79.625 131.84375 79.257812 132.015625 78.914062 C 132.148438 78.597656 132.359375 78.34375 132.648438 78.160156 C 132.949219 77.976562 133.277344 77.878906 133.628906 77.871094 C 134.089844 77.832031 134.492188 77.96875 134.839844 78.277344 C 135.15625 78.597656 135.328125 78.984375 135.359375 79.433594 L 134.550781 79.433594 C 134.492188 79.085938 134.4375 78.855469 134.261719 78.738281 C 134.058594 78.582031 133.828125 78.503906 133.570312 78.507812 C 133.25 78.5 132.980469 78.613281 132.765625 78.855469 C 132.554688 79.191406 132.460938 79.558594 132.476562 79.953125 L 132.476562 80.359375 C 132.460938 80.753906 132.554688 81.121094 132.765625 81.457031 C 132.941406 81.726562 133.191406 81.863281 133.515625 81.863281 C 133.777344 81.886719 134.007812 81.808594 134.207031 81.632812 C 134.378906 81.515625 134.4375 81.285156 134.492188 80.9375 Z M 135.300781 80.9375 " fill-opacity="1" fill-rule="nonzero"/><path fill="#025183" d="M 140.371094 80.300781 C 140.386719 80.707031 140.3125 81.09375 140.140625 81.457031 C 140.003906 81.777344 139.792969 82.027344 139.503906 82.210938 C 139.207031 82.402344 138.878906 82.5 138.527344 82.5 C 138.171875 82.5 137.84375 82.402344 137.546875 82.210938 C 137.253906 82.027344 137.042969 81.777344 136.914062 81.457031 C 136.742188 81.09375 136.664062 80.707031 136.683594 80.300781 L 136.683594 80.070312 C 136.664062 79.664062 136.742188 79.28125 136.914062 78.914062 C 137.0625 78.609375 137.273438 78.359375 137.546875 78.160156 C 137.84375 77.964844 138.171875 77.871094 138.527344 77.871094 C 138.878906 77.878906 139.203125 77.976562 139.503906 78.160156 C 139.8125 78.328125 140.023438 78.582031 140.140625 78.914062 C 140.3125 79.28125 140.386719 79.664062 140.371094 80.070312 Z M 139.5625 80.070312 C 139.578125 79.65625 139.484375 79.269531 139.273438 78.914062 C 139.085938 78.613281 138.820312 78.480469 138.46875 78.507812 C 138.125 78.496094 137.855469 78.628906 137.660156 78.914062 C 137.425781 79.261719 137.328125 79.648438 137.375 80.070312 L 137.375 80.359375 C 137.359375 80.773438 137.453125 81.160156 137.660156 81.515625 C 137.757812 81.644531 137.875 81.742188 138.015625 81.8125 C 138.160156 81.886719 138.308594 81.921875 138.46875 81.921875 C 138.628906 81.921875 138.777344 81.886719 138.917969 81.8125 C 139.0625 81.742188 139.179688 81.644531 139.273438 81.515625 C 139.484375 81.160156 139.578125 80.773438 139.5625 80.359375 Z M 139.5625 80.070312 " fill-opacity="1" fill-rule="nonzero"/><path fill="#025183" d="M 143.421875 81.457031 L 144.574219 77.929688 L 145.4375 77.929688 L 143.824219 82.441406 L 143.078125 82.441406 L 141.464844 77.929688 L 142.328125 77.929688 Z M 143.421875 81.457031 " fill-opacity="1" fill-rule="nonzero"/><path fill="#025183" d="M 146.707031 77.929688 L 147.511719 77.929688 L 147.511719 82.441406 L 146.707031 82.441406 Z M 146.707031 77.929688 " fill-opacity="1" fill-rule="nonzero"/><path fill="#025183" d="M 149.242188 82.441406 L 149.242188 77.929688 L 150.566406 77.929688 C 150.9375 77.929688 151.285156 78.023438 151.601562 78.21875 C 151.910156 78.398438 152.140625 78.648438 152.292969 78.972656 C 152.460938 79.316406 152.539062 79.683594 152.523438 80.070312 L 152.523438 80.300781 C 152.539062 80.707031 152.460938 81.089844 152.292969 81.457031 C 152.132812 81.796875 151.882812 82.050781 151.542969 82.210938 C 151.207031 82.402344 150.839844 82.5 150.449219 82.5 L 149.242188 82.5 Z M 149.988281 78.507812 L 149.988281 81.746094 L 150.507812 81.746094 C 150.890625 81.789062 151.199219 81.65625 151.429688 81.34375 C 151.6875 81.023438 151.804688 80.65625 151.773438 80.242188 L 151.773438 80.011719 C 151.804688 79.601562 151.6875 79.234375 151.429688 78.914062 C 151.179688 78.644531 150.875 78.507812 150.507812 78.507812 Z M 149.988281 78.507812 " fill-opacity="1" fill-rule="nonzero"/><path fill="#025183" d="M 153.90625 80.1875 L 155.519531 80.1875 L 155.519531 80.820312 L 153.90625 80.820312 Z M 153.90625 80.1875 " fill-opacity="1" fill-rule="nonzero"/><path fill="#025183" d="M 158.859375 82.441406 L 158.113281 82.441406 L 158.113281 78.796875 L 157.015625 79.203125 L 157.015625 78.566406 L 158.804688 77.929688 L 158.917969 77.929688 L 158.917969 82.441406 Z M 158.859375 82.441406 " fill-opacity="1" fill-rule="nonzero"/><path fill="#025183" d="M 163.355469 80.53125 C 163.136719 80.816406 162.847656 80.953125 162.488281 80.9375 C 162.113281 80.964844 161.804688 80.832031 161.566406 80.53125 C 161.320312 80.210938 161.203125 79.84375 161.222656 79.433594 C 161.21875 79.148438 161.277344 78.878906 161.394531 78.625 C 161.519531 78.386719 161.695312 78.195312 161.914062 78.046875 C 162.148438 77.925781 162.398438 77.867188 162.664062 77.871094 C 163.117188 77.859375 163.480469 78.03125 163.757812 78.390625 C 164.0625 78.804688 164.195312 79.269531 164.160156 79.78125 L 164.160156 80.011719 C 164.222656 80.707031 164.03125 81.324219 163.585938 81.863281 C 163.121094 82.324219 162.5625 82.535156 161.914062 82.5 L 161.796875 82.5 L 161.796875 81.863281 L 161.914062 81.863281 C 162.308594 81.894531 162.652344 81.777344 162.949219 81.515625 C 163.191406 81.234375 163.328125 80.90625 163.355469 80.53125 Z M 162.605469 80.359375 C 162.75 80.355469 162.882812 80.316406 163.007812 80.242188 C 163.121094 80.140625 163.21875 80.027344 163.296875 79.894531 L 163.296875 79.605469 C 163.316406 79.308594 163.242188 79.039062 163.066406 78.796875 C 162.964844 78.574219 162.789062 78.476562 162.546875 78.507812 C 162.320312 78.507812 162.148438 78.601562 162.027344 78.796875 C 161.785156 79.261719 161.785156 79.722656 162.027344 80.1875 C 162.144531 80.359375 162.375 80.359375 162.605469 80.359375 Z M 162.605469 80.359375 " fill-opacity="1" fill-rule="nonzero"/><path fill="#025183" d="M 169.632812 81.457031 L 170.785156 77.929688 L 171.648438 77.929688 L 170.035156 82.441406 L 169.289062 82.441406 L 167.675781 77.929688 L 168.539062 77.929688 Z M 169.632812 81.457031 " fill-opacity="1" fill-rule="nonzero"/><path fill="#025183" d="M 175.164062 81.34375 L 173.433594 81.34375 L 173.089844 82.382812 L 172.28125 82.382812 L 174.011719 77.871094 L 174.703125 77.871094 L 176.429688 82.382812 L 175.625 82.382812 Z M 173.664062 80.765625 L 174.992188 80.765625 L 174.355469 78.914062 Z M 173.664062 80.765625 " fill-opacity="1" fill-rule="nonzero"/><path fill="#025183" d="M 180.980469 80.9375 C 180.941406 81.382812 180.769531 81.769531 180.464844 82.09375 C 180.113281 82.390625 179.710938 82.527344 179.253906 82.5 C 178.921875 82.519531 178.613281 82.445312 178.332031 82.269531 C 178.042969 82.085938 177.832031 81.832031 177.699219 81.515625 C 177.523438 81.171875 177.449219 80.804688 177.46875 80.417969 L 177.46875 80.011719 C 177.449219 79.625 177.523438 79.257812 177.699219 78.914062 C 177.832031 78.597656 178.042969 78.34375 178.332031 78.160156 C 178.632812 77.976562 178.957031 77.878906 179.3125 77.871094 C 179.773438 77.832031 180.175781 77.96875 180.519531 78.277344 C 180.835938 78.597656 181.011719 78.984375 181.039062 79.433594 L 180.234375 79.433594 C 180.175781 79.085938 180.117188 78.855469 179.945312 78.738281 C 179.742188 78.582031 179.511719 78.503906 179.253906 78.507812 C 178.929688 78.5 178.664062 78.613281 178.445312 78.855469 C 178.238281 79.191406 178.140625 79.558594 178.160156 79.953125 L 178.160156 80.359375 C 178.140625 80.753906 178.238281 81.121094 178.445312 81.457031 C 178.625 81.726562 178.875 81.863281 179.195312 81.863281 C 179.460938 81.886719 179.691406 81.808594 179.886719 81.632812 C 180.058594 81.515625 180.117188 81.285156 180.175781 80.9375 Z M 180.980469 80.9375 " fill-opacity="1" fill-rule="nonzero"/><path fill="#025183" d="M 185.878906 80.9375 C 185.835938 81.382812 185.664062 81.769531 185.359375 82.09375 C 185.011719 82.390625 184.605469 82.527344 184.148438 82.5 C 183.816406 82.519531 183.511719 82.445312 183.226562 82.269531 C 182.9375 82.085938 182.726562 81.832031 182.59375 81.515625 C 182.421875 81.171875 182.34375 80.804688 182.363281 80.417969 L 182.363281 80.011719 C 182.34375 79.625 182.421875 79.257812 182.59375 78.914062 C 182.726562 78.597656 182.9375 78.34375 183.226562 78.160156 C 183.527344 77.976562 183.855469 77.878906 184.207031 77.871094 C 184.667969 77.832031 185.070312 77.96875 185.417969 78.277344 C 185.734375 78.597656 185.90625 78.984375 185.933594 79.433594 L 185.128906 79.433594 C 185.070312 79.085938 185.015625 78.855469 184.839844 78.738281 C 184.636719 78.582031 184.40625 78.503906 184.148438 78.507812 C 183.828125 78.5 183.558594 78.613281 183.34375 78.855469 C 183.132812 79.191406 183.039062 79.558594 183.054688 79.953125 L 183.054688 80.359375 C 183.039062 80.753906 183.132812 81.121094 183.34375 81.457031 C 183.519531 81.726562 183.769531 81.863281 184.09375 81.863281 C 184.355469 81.886719 184.585938 81.808594 184.785156 81.632812 C 184.957031 81.515625 185.015625 81.285156 185.070312 80.9375 Z M 185.878906 80.9375 " fill-opacity="1" fill-rule="nonzero"/><path fill="#025183" d="M 187.375 77.929688 L 188.183594 77.929688 L 188.183594 82.441406 L 187.375 82.441406 Z M 187.375 77.929688 " fill-opacity="1" fill-rule="nonzero"/><path fill="#025183" d="M 193.480469 82.441406 L 192.675781 82.441406 L 190.660156 79.261719 L 190.660156 82.441406 L 189.851562 82.441406 L 189.851562 77.929688 L 190.660156 77.929688 L 192.675781 81.167969 L 192.675781 77.929688 L 193.425781 77.929688 L 193.425781 82.441406 Z M 193.480469 82.441406 " fill-opacity="1" fill-rule="nonzero"/><g clip-path="url(#115e6a4ec7)"><path fill="#025183" d="M 197.800781 80.417969 L 195.957031 80.417969 L 195.957031 81.804688 L 198.148438 81.804688 L 198.148438 82.441406 L 195.210938 82.441406 L 195.210938 77.929688 L 198.148438 77.929688 L 198.148438 78.566406 L 195.957031 78.566406 L 195.957031 79.78125 L 197.800781 79.78125 Z M 197.800781 80.417969 " fill-opacity="1" fill-rule="nonzero"/></g><g clip-path="url(#58e66afd37)"><path fill="#025183" d="M 46.242188 89.964844 L 46.242188 91.179688 L 45.664062 91.179688 L 45.664062 87.878906 L 46.933594 87.878906 C 47.253906 87.878906 47.542969 87.976562 47.796875 88.167969 C 48.035156 88.363281 48.152344 88.613281 48.140625 88.921875 C 48.15625 89.214844 48.058594 89.464844 47.855469 89.675781 C 47.597656 89.867188 47.3125 89.964844 46.988281 89.964844 Z M 46.242188 89.5 L 46.933594 89.5 C 47.097656 89.503906 47.25 89.464844 47.394531 89.382812 C 47.511719 89.277344 47.570312 89.140625 47.566406 88.980469 C 47.585938 88.8125 47.527344 88.675781 47.394531 88.574219 C 47.257812 88.46875 47.101562 88.414062 46.933594 88.402344 L 46.242188 88.402344 Z M 46.242188 89.5 " fill-opacity="1" fill-rule="nonzero"/></g><g clip-path="url(#d01449a043)"><path fill="#025183" d="M 50.792969 89.90625 L 50.160156 89.90625 L 50.160156 91.179688 L 49.582031 91.179688 L 49.582031 87.878906 L 50.734375 87.878906 C 51.054688 87.839844 51.339844 87.917969 51.597656 88.113281 C 51.835938 88.308594 51.929688 88.558594 51.886719 88.863281 C 51.890625 89.074219 51.832031 89.269531 51.714844 89.441406 C 51.609375 89.625 51.457031 89.742188 51.253906 89.789062 L 52 91.179688 L 52 91.234375 L 51.367188 91.234375 Z M 50.160156 89.441406 L 50.734375 89.441406 C 50.910156 89.445312 51.066406 89.390625 51.195312 89.269531 C 51.3125 89.160156 51.367188 89.023438 51.367188 88.863281 C 51.367188 88.703125 51.3125 88.570312 51.195312 88.457031 C 51.070312 88.328125 50.914062 88.269531 50.734375 88.285156 L 50.160156 88.285156 Z M 50.160156 89.441406 " fill-opacity="1" fill-rule="nonzero"/></g><g clip-path="url(#5fb1c262d0)"><path fill="#025183" d="M 56.035156 89.617188 C 56.039062 89.917969 55.980469 90.207031 55.863281 90.484375 C 55.738281 90.703125 55.585938 90.894531 55.402344 91.0625 C 55.183594 91.175781 54.953125 91.234375 54.710938 91.234375 C 54.460938 91.25 54.230469 91.191406 54.019531 91.0625 C 53.785156 90.933594 53.628906 90.742188 53.558594 90.484375 C 53.4375 90.226562 53.378906 89.957031 53.382812 89.671875 L 53.382812 89.5 C 53.378906 89.199219 53.4375 88.910156 53.558594 88.632812 C 53.664062 88.402344 53.816406 88.210938 54.019531 88.054688 C 54.234375 87.941406 54.464844 87.882812 54.710938 87.878906 C 54.957031 87.875 55.1875 87.933594 55.402344 88.054688 C 55.617188 88.195312 55.769531 88.390625 55.863281 88.632812 C 55.980469 88.910156 56.039062 89.199219 56.035156 89.5 Z M 55.457031 89.441406 C 55.488281 89.140625 55.414062 88.871094 55.226562 88.632812 C 55.078125 88.453125 54.886719 88.355469 54.652344 88.34375 C 54.410156 88.339844 54.21875 88.4375 54.074219 88.632812 C 53.921875 88.878906 53.84375 89.148438 53.84375 89.441406 L 53.84375 89.617188 C 53.8125 89.917969 53.890625 90.1875 54.074219 90.425781 C 54.144531 90.515625 54.226562 90.589844 54.328125 90.640625 C 54.429688 90.691406 54.539062 90.714844 54.652344 90.714844 C 54.765625 90.714844 54.871094 90.691406 54.972656 90.640625 C 55.074219 90.589844 55.160156 90.515625 55.226562 90.425781 C 55.390625 90.160156 55.46875 89.871094 55.457031 89.558594 Z M 55.457031 89.441406 " fill-opacity="1" fill-rule="nonzero"/></g><g clip-path="url(#00dc2f02c9)"><path fill="#025183" d="M 58.683594 90.484375 L 59.492188 87.9375 L 60.125 87.9375 L 58.972656 91.234375 L 58.394531 91.234375 L 57.242188 87.9375 L 57.878906 87.9375 Z M 58.683594 90.484375 " fill-opacity="1" fill-rule="nonzero"/></g><g clip-path="url(#871893bc82)"><path fill="#025183" d="M 63.40625 89.730469 L 62.082031 89.730469 L 62.082031 90.714844 L 63.636719 90.714844 L 63.636719 91.179688 L 61.507812 91.179688 L 61.507812 87.878906 L 63.636719 87.878906 L 63.636719 88.34375 L 62.082031 88.34375 L 62.082031 89.269531 L 63.40625 89.269531 Z M 63.40625 89.730469 " fill-opacity="1" fill-rule="nonzero"/></g><g clip-path="url(#d704300a8b)"><path fill="#025183" d="M 67.671875 91.179688 L 67.09375 91.179688 L 65.65625 88.863281 L 65.65625 91.179688 L 65.078125 91.179688 L 65.078125 87.878906 L 65.65625 87.878906 L 67.09375 90.253906 L 67.09375 87.878906 L 67.671875 87.878906 Z M 67.671875 91.179688 " fill-opacity="1" fill-rule="nonzero"/></g><g clip-path="url(#ee8e4a46ff)"><path fill="#025183" d="M 74.066406 91.179688 L 73.488281 91.179688 L 73.488281 89.730469 L 72.046875 89.730469 L 72.046875 91.179688 L 71.472656 91.179688 L 71.472656 87.878906 L 72.046875 87.878906 L 72.046875 89.269531 L 73.488281 89.269531 L 73.488281 87.878906 L 74.066406 87.878906 Z M 74.066406 91.179688 " fill-opacity="1" fill-rule="nonzero"/></g><g clip-path="url(#fdadb1f264)"><path fill="#025183" d="M 78.15625 87.878906 L 78.15625 90.078125 C 78.175781 90.40625 78.0625 90.675781 77.808594 90.890625 C 77.5625 91.113281 77.277344 91.207031 76.945312 91.179688 C 76.605469 91.1875 76.296875 91.09375 76.023438 90.890625 C 75.769531 90.675781 75.65625 90.40625 75.679688 90.078125 L 75.679688 87.878906 L 76.253906 87.878906 L 76.253906 90.078125 C 76.242188 90.175781 76.25 90.269531 76.28125 90.359375 C 76.308594 90.453125 76.359375 90.53125 76.425781 90.597656 C 76.496094 90.667969 76.574219 90.71875 76.664062 90.746094 C 76.757812 90.777344 76.851562 90.785156 76.945312 90.773438 C 77.40625 90.773438 77.578125 90.542969 77.578125 90.078125 L 77.578125 87.878906 Z M 78.15625 87.878906 " fill-opacity="1" fill-rule="nonzero"/></g><g clip-path="url(#dd3243798e)"><path fill="#025183" d="M 80.460938 87.878906 L 81.382812 90.425781 L 82.300781 87.878906 L 83.050781 87.878906 L 83.050781 91.179688 L 82.476562 91.179688 L 82.476562 90.078125 L 82.53125 88.632812 L 81.554688 91.179688 L 81.152344 91.179688 L 80.171875 88.632812 L 80.230469 90.078125 L 80.230469 91.179688 L 79.652344 91.179688 L 79.652344 87.878906 Z M 80.460938 87.878906 " fill-opacity="1" fill-rule="nonzero"/></g><g clip-path="url(#87cb5f1dd3)"><path fill="#025183" d="M 86.625 90.425781 L 85.355469 90.425781 L 85.066406 91.179688 L 84.492188 91.179688 L 85.703125 87.878906 L 86.21875 87.878906 L 87.488281 91.179688 L 86.910156 91.179688 Z M 85.472656 89.964844 L 86.394531 89.964844 L 85.933594 88.574219 Z M 85.472656 89.964844 " fill-opacity="1" fill-rule="nonzero"/></g><g clip-path="url(#5bd2630b08)"><path fill="#025183" d="M 91.40625 91.179688 L 90.828125 91.179688 L 89.386719 88.863281 L 89.386719 91.179688 L 88.8125 91.179688 L 88.8125 87.878906 L 89.386719 87.878906 L 90.828125 90.253906 L 90.828125 87.878906 L 91.40625 87.878906 Z M 91.40625 91.179688 " fill-opacity="1" fill-rule="nonzero"/></g><g clip-path="url(#d88f35dded)"><path fill="#025183" d="M 97.050781 90.425781 L 95.78125 90.425781 L 95.496094 91.179688 L 94.917969 91.179688 L 96.128906 87.878906 L 96.644531 87.878906 L 97.914062 91.179688 L 97.335938 91.179688 Z M 95.957031 89.964844 L 96.875 89.964844 L 96.417969 88.574219 Z M 95.957031 89.964844 " fill-opacity="1" fill-rule="nonzero"/></g><g clip-path="url(#4cd89def26)"><path fill="#025183" d="M 99.238281 91.179688 L 99.238281 87.878906 L 100.21875 87.878906 C 100.480469 87.875 100.730469 87.933594 100.96875 88.054688 C 101.21875 88.175781 101.390625 88.371094 101.484375 88.632812 C 101.605469 88.890625 101.664062 89.160156 101.65625 89.441406 L 101.65625 89.617188 C 101.664062 89.898438 101.605469 90.167969 101.484375 90.425781 C 101.371094 90.660156 101.199219 90.832031 100.96875 90.945312 C 100.710938 91.066406 100.441406 91.125 100.160156 91.121094 L 99.238281 91.121094 Z M 99.816406 88.34375 L 99.816406 90.714844 L 100.160156 90.714844 C 100.433594 90.71875 100.664062 90.621094 100.851562 90.425781 C 101.035156 90.1875 101.113281 89.917969 101.082031 89.617188 L 101.082031 89.441406 C 101.113281 89.140625 101.035156 88.871094 100.851562 88.632812 C 100.664062 88.4375 100.433594 88.339844 100.160156 88.34375 Z M 99.816406 88.34375 " fill-opacity="1" fill-rule="nonzero"/></g><g clip-path="url(#56d3812ff2)"><path fill="#025183" d="M 105.171875 89.730469 L 103.789062 89.730469 L 103.789062 90.714844 L 105.34375 90.714844 L 105.34375 91.179688 L 103.214844 91.179688 L 103.214844 87.878906 L 105.34375 87.878906 L 105.34375 88.34375 L 103.789062 88.34375 L 103.789062 89.269531 L 105.113281 89.269531 L 105.113281 89.730469 Z M 105.171875 89.730469 " fill-opacity="1" fill-rule="nonzero"/></g><g clip-path="url(#dacd2ef73d)"><path fill="#025183" d="M 109.433594 91.179688 L 108.859375 91.179688 L 107.417969 88.863281 L 107.417969 91.179688 L 106.84375 91.179688 L 106.84375 87.878906 L 107.417969 87.878906 L 108.859375 90.253906 L 108.859375 87.878906 L 109.433594 87.878906 Z M 109.433594 91.179688 " fill-opacity="1" fill-rule="nonzero"/></g><g clip-path="url(#e325eef81d)"><path fill="#025183" d="M 113.699219 89.617188 C 113.703125 89.917969 113.644531 90.207031 113.523438 90.484375 C 113.402344 90.703125 113.25 90.894531 113.0625 91.0625 C 112.847656 91.175781 112.617188 91.234375 112.371094 91.234375 C 112.125 91.25 111.894531 91.191406 111.679688 91.0625 C 111.445312 90.933594 111.292969 90.742188 111.222656 90.484375 C 111.101562 90.226562 111.042969 89.957031 111.046875 89.671875 L 111.046875 89.5 C 111.042969 89.199219 111.101562 88.910156 111.222656 88.632812 C 111.328125 88.402344 111.480469 88.210938 111.679688 88.054688 C 111.898438 87.941406 112.128906 87.882812 112.371094 87.878906 C 112.617188 87.875 112.847656 87.933594 113.0625 88.054688 C 113.28125 88.195312 113.433594 88.390625 113.523438 88.632812 C 113.644531 88.910156 113.703125 89.199219 113.699219 89.5 Z M 113.121094 89.441406 C 113.152344 89.140625 113.074219 88.871094 112.890625 88.632812 C 112.742188 88.453125 112.550781 88.355469 112.316406 88.34375 C 112.074219 88.339844 111.882812 88.4375 111.738281 88.632812 C 111.582031 88.878906 111.507812 89.148438 111.507812 89.441406 L 111.507812 89.617188 C 111.476562 89.917969 111.554688 90.1875 111.738281 90.425781 C 111.808594 90.515625 111.890625 90.589844 111.992188 90.640625 C 112.09375 90.691406 112.203125 90.714844 112.316406 90.714844 C 112.429688 90.714844 112.535156 90.691406 112.636719 90.640625 C 112.738281 90.589844 112.824219 90.515625 112.890625 90.425781 C 113.054688 90.160156 113.132812 89.871094 113.121094 89.558594 Z M 113.121094 89.441406 " fill-opacity="1" fill-rule="nonzero"/></g><g clip-path="url(#4a512aaf9e)"><path fill="#025183" d="M 116.347656 90.484375 L 117.152344 87.9375 L 117.789062 87.9375 L 116.636719 91.234375 L 116.058594 91.234375 L 114.90625 87.9375 L 115.542969 87.9375 Z M 116.347656 90.484375 " fill-opacity="1" fill-rule="nonzero"/></g><g clip-path="url(#a2097581a7)"><path fill="#025183" d="M 119.171875 87.878906 L 119.746094 87.878906 L 119.746094 91.179688 L 119.171875 91.179688 Z M 119.171875 87.878906 " fill-opacity="1" fill-rule="nonzero"/></g><g clip-path="url(#2cabc7b44a)"><path fill="#025183" d="M 122.625 89.90625 L 121.992188 89.90625 L 121.992188 91.179688 L 121.417969 91.179688 L 121.417969 87.878906 L 122.570312 87.878906 C 122.886719 87.839844 123.175781 87.917969 123.433594 88.113281 C 123.667969 88.308594 123.765625 88.558594 123.722656 88.863281 C 123.726562 89.074219 123.667969 89.269531 123.546875 89.441406 C 123.445312 89.625 123.292969 89.742188 123.085938 89.789062 L 123.835938 91.179688 L 123.835938 91.234375 L 123.203125 91.234375 Z M 121.992188 89.441406 L 122.570312 89.441406 C 122.746094 89.445312 122.898438 89.390625 123.03125 89.269531 C 123.144531 89.160156 123.203125 89.023438 123.203125 88.863281 C 123.203125 88.703125 123.144531 88.570312 123.03125 88.457031 C 122.902344 88.328125 122.75 88.269531 122.570312 88.285156 L 121.992188 88.285156 Z M 121.992188 89.441406 " fill-opacity="1" fill-rule="nonzero"/></g><g clip-path="url(#682c0502b8)"><path fill="#025183" d="M 127.121094 90.425781 L 125.851562 90.425781 L 125.566406 91.179688 L 124.988281 91.179688 L 126.199219 87.878906 L 126.714844 87.878906 L 127.984375 91.179688 L 127.40625 91.179688 Z M 126.027344 89.964844 L 126.945312 89.964844 L 126.484375 88.574219 Z M 126.027344 89.964844 " fill-opacity="1" fill-rule="nonzero"/></g><g clip-path="url(#72b24b00a8)"><path fill="#025183" d="M 129.941406 90.714844 L 131.441406 90.714844 L 131.441406 91.179688 L 129.367188 91.179688 L 129.367188 87.878906 L 129.941406 87.878906 Z M 129.941406 90.714844 " fill-opacity="1" fill-rule="nonzero"/></g><g clip-path="url(#db76c5eb64)"><path fill="#025183" d="M 136.105469 90.484375 L 136.914062 87.9375 L 137.546875 87.9375 L 136.394531 91.234375 L 135.820312 91.234375 L 134.667969 87.9375 L 135.300781 87.9375 Z M 136.105469 90.484375 " fill-opacity="1" fill-rule="nonzero"/></g><g clip-path="url(#6b35642be1)"><path fill="#025183" d="M 140.832031 89.730469 L 139.503906 89.730469 L 139.503906 90.714844 L 141.0625 90.714844 L 141.0625 91.179688 L 138.929688 91.179688 L 138.929688 87.878906 L 141.0625 87.878906 L 141.0625 88.34375 L 139.503906 88.34375 L 139.503906 89.269531 L 140.832031 89.269531 Z M 140.832031 89.730469 " fill-opacity="1" fill-rule="nonzero"/></g><g clip-path="url(#fb2fb3ef7e)"><path fill="#025183" d="M 144.976562 90.136719 C 144.953125 90.460938 144.816406 90.730469 144.574219 90.945312 C 144.300781 91.152344 143.992188 91.246094 143.652344 91.234375 C 143.40625 91.25 143.175781 91.191406 142.960938 91.0625 C 142.761719 90.929688 142.609375 90.757812 142.5 90.542969 C 142.382812 90.285156 142.324219 90.015625 142.328125 89.730469 L 142.328125 89.441406 C 142.324219 89.160156 142.382812 88.890625 142.5 88.632812 C 142.609375 88.417969 142.761719 88.246094 142.960938 88.113281 C 143.179688 88 143.410156 87.941406 143.652344 87.9375 C 143.972656 87.9375 144.261719 88.03125 144.515625 88.226562 C 144.757812 88.441406 144.894531 88.714844 144.921875 89.039062 L 144.34375 89.039062 C 144.339844 88.832031 144.261719 88.65625 144.113281 88.515625 C 143.984375 88.394531 143.828125 88.339844 143.652344 88.34375 C 143.410156 88.339844 143.21875 88.4375 143.078125 88.632812 C 142.949219 88.886719 142.871094 89.15625 142.847656 89.441406 L 142.847656 89.730469 C 142.828125 90.019531 142.886719 90.289062 143.019531 90.542969 C 143.15625 90.75 143.347656 90.847656 143.59375 90.832031 C 143.792969 90.847656 143.964844 90.789062 144.113281 90.65625 C 144.238281 90.503906 144.3125 90.332031 144.34375 90.136719 Z M 144.976562 90.136719 " fill-opacity="1" fill-rule="nonzero"/></g><g clip-path="url(#11328ed6ce)"><path fill="#025183" d="M 148.78125 88.34375 L 147.742188 88.34375 L 147.742188 91.179688 L 147.167969 91.179688 L 147.167969 88.34375 L 146.128906 88.34375 L 146.128906 87.878906 L 148.722656 87.878906 L 148.722656 88.34375 Z M 148.78125 88.34375 " fill-opacity="1" fill-rule="nonzero"/></g><g clip-path="url(#de0377e3ed)"><path fill="#025183" d="M 152.753906 89.617188 C 152.757812 89.917969 152.699219 90.207031 152.582031 90.484375 C 152.460938 90.703125 152.304688 90.894531 152.121094 91.0625 C 151.902344 91.175781 151.671875 91.234375 151.429688 91.234375 C 151.183594 91.25 150.953125 91.191406 150.738281 91.0625 C 150.503906 90.933594 150.351562 90.742188 150.277344 90.484375 C 150.15625 90.226562 150.101562 89.957031 150.105469 89.671875 L 150.105469 89.5 C 150.101562 89.199219 150.160156 88.910156 150.277344 88.632812 C 150.382812 88.402344 150.539062 88.210938 150.738281 88.054688 C 150.953125 87.941406 151.183594 87.882812 151.429688 87.878906 C 151.675781 87.875 151.90625 87.933594 152.121094 88.054688 C 152.335938 88.195312 152.488281 88.390625 152.582031 88.632812 C 152.699219 88.910156 152.757812 89.199219 152.753906 89.5 Z M 152.179688 89.441406 C 152.210938 89.140625 152.132812 88.871094 151.949219 88.632812 C 151.796875 88.453125 151.605469 88.355469 151.371094 88.34375 C 151.132812 88.339844 150.9375 88.4375 150.796875 88.632812 C 150.640625 88.878906 150.5625 89.148438 150.566406 89.441406 L 150.566406 89.617188 C 150.535156 89.917969 150.609375 90.1875 150.796875 90.425781 C 150.863281 90.515625 150.949219 90.589844 151.050781 90.640625 C 151.152344 90.691406 151.257812 90.714844 151.371094 90.714844 C 151.484375 90.714844 151.59375 90.691406 151.695312 90.640625 C 151.796875 90.589844 151.878906 90.515625 151.949219 90.425781 C 152.113281 90.160156 152.1875 89.871094 152.179688 89.558594 Z M 152.179688 89.441406 " fill-opacity="1" fill-rule="nonzero"/></g><g clip-path="url(#7b1f41ecaf)"><path fill="#025183" d="M 155.519531 89.90625 L 154.886719 89.90625 L 154.886719 91.179688 L 154.308594 91.179688 L 154.308594 87.878906 L 155.460938 87.878906 C 155.78125 87.839844 156.070312 87.917969 156.324219 88.113281 C 156.5625 88.308594 156.65625 88.558594 156.613281 88.863281 C 156.617188 89.074219 156.5625 89.269531 156.441406 89.441406 C 156.339844 89.625 156.183594 89.742188 155.980469 89.789062 L 156.730469 91.179688 L 156.730469 91.234375 L 156.09375 91.234375 Z M 154.886719 89.441406 L 155.460938 89.441406 C 155.640625 89.445312 155.792969 89.390625 155.921875 89.269531 C 156.039062 89.160156 156.09375 89.023438 156.09375 88.863281 C 156.09375 88.703125 156.039062 88.570312 155.921875 88.457031 C 155.796875 88.328125 155.644531 88.269531 155.460938 88.285156 L 154.886719 88.285156 Z M 154.886719 89.441406 " fill-opacity="1" fill-rule="nonzero"/></g><g clip-path="url(#9d32f41444)"><path fill="#025183" d="M 162.546875 88.34375 L 161.511719 88.34375 L 161.511719 91.179688 L 160.933594 91.179688 L 160.933594 88.34375 L 159.898438 88.34375 L 159.898438 87.878906 L 162.488281 87.878906 L 162.488281 88.34375 Z M 162.546875 88.34375 " fill-opacity="1" fill-rule="nonzero"/></g><g clip-path="url(#189120561c)"><path fill="#025183" d="M 165.832031 89.730469 L 164.507812 89.730469 L 164.507812 90.714844 L 166.0625 90.714844 L 166.0625 91.179688 L 163.929688 91.179688 L 163.929688 87.878906 L 166.0625 87.878906 L 166.0625 88.34375 L 164.507812 88.34375 L 164.507812 89.269531 L 165.832031 89.269531 Z M 165.832031 89.730469 " fill-opacity="1" fill-rule="nonzero"/></g><g clip-path="url(#71adf1a1a6)"><path fill="#025183" d="M 170.035156 90.136719 C 170.011719 90.460938 169.875 90.730469 169.632812 90.945312 C 169.359375 91.152344 169.050781 91.246094 168.710938 91.234375 C 168.464844 91.25 168.234375 91.191406 168.019531 91.0625 C 167.820312 90.929688 167.667969 90.757812 167.558594 90.542969 C 167.441406 90.285156 167.382812 90.015625 167.386719 89.730469 L 167.386719 89.441406 C 167.382812 89.160156 167.441406 88.890625 167.558594 88.632812 C 167.667969 88.417969 167.820312 88.246094 168.019531 88.113281 C 168.238281 88 168.46875 87.941406 168.710938 87.9375 C 169.03125 87.9375 169.320312 88.03125 169.574219 88.226562 C 169.816406 88.441406 169.953125 88.714844 169.980469 89.039062 L 169.402344 89.039062 C 169.398438 88.832031 169.320312 88.65625 169.171875 88.515625 C 169.042969 88.394531 168.886719 88.339844 168.710938 88.34375 C 168.46875 88.339844 168.277344 88.4375 168.136719 88.632812 C 168.007812 88.886719 167.929688 89.15625 167.90625 89.441406 L 167.90625 89.730469 C 167.886719 90.019531 167.945312 90.289062 168.078125 90.542969 C 168.214844 90.75 168.40625 90.847656 168.652344 90.832031 C 168.851562 90.847656 169.023438 90.789062 169.171875 90.65625 C 169.296875 90.503906 169.371094 90.332031 169.402344 90.136719 Z M 170.035156 90.136719 " fill-opacity="1" fill-rule="nonzero"/></g><g clip-path="url(#c97d99a5a7)"><path fill="#025183" d="M 174.125 91.179688 L 173.550781 91.179688 L 173.550781 89.730469 L 172.109375 89.730469 L 172.109375 91.179688 L 171.535156 91.179688 L 171.535156 87.878906 L 172.109375 87.878906 L 172.109375 89.269531 L 173.550781 89.269531 L 173.550781 87.878906 L 174.125 87.878906 Z M 174.125 91.179688 " fill-opacity="1" fill-rule="nonzero"/></g><g clip-path="url(#03d005f1a4)"><path fill="#025183" d="M 178.390625 91.179688 L 177.8125 91.179688 L 176.371094 88.863281 L 176.371094 91.179688 L 175.796875 91.179688 L 175.796875 87.878906 L 176.371094 87.878906 L 177.8125 90.253906 L 177.8125 87.878906 L 178.390625 87.878906 Z M 178.390625 91.179688 " fill-opacity="1" fill-rule="nonzero"/></g><g clip-path="url(#3261e0928d)"><path fill="#025183" d="M 182.652344 89.617188 C 182.65625 89.917969 182.597656 90.207031 182.480469 90.484375 C 182.355469 90.703125 182.203125 90.894531 182.019531 91.0625 C 181.800781 91.175781 181.570312 91.234375 181.328125 91.234375 C 181.078125 91.25 180.847656 91.191406 180.636719 91.0625 C 180.402344 90.933594 180.246094 90.742188 180.175781 90.484375 C 180.054688 90.226562 179.996094 89.957031 180.003906 89.671875 L 180.003906 89.5 C 180 89.199219 180.054688 88.910156 180.175781 88.632812 C 180.28125 88.402344 180.4375 88.210938 180.636719 88.054688 C 180.851562 87.941406 181.082031 87.882812 181.328125 87.878906 C 181.574219 87.875 181.804688 87.933594 182.019531 88.054688 C 182.234375 88.195312 182.386719 88.390625 182.480469 88.632812 C 182.597656 88.910156 182.65625 89.199219 182.652344 89.5 Z M 182.074219 89.441406 C 182.105469 89.140625 182.03125 88.871094 181.84375 88.632812 C 181.695312 88.453125 181.503906 88.355469 181.269531 88.34375 C 181.027344 88.339844 180.835938 88.4375 180.695312 88.632812 C 180.539062 88.878906 180.460938 89.148438 180.464844 89.441406 L 180.464844 89.617188 C 180.433594 89.917969 180.507812 90.1875 180.695312 90.425781 C 180.761719 90.515625 180.847656 90.589844 180.949219 90.640625 C 181.046875 90.691406 181.15625 90.714844 181.269531 90.714844 C 181.382812 90.714844 181.488281 90.691406 181.589844 90.640625 C 181.691406 90.589844 181.777344 90.515625 181.84375 90.425781 C 182.007812 90.160156 182.085938 89.871094 182.074219 89.558594 Z M 182.074219 89.441406 " fill-opacity="1" fill-rule="nonzero"/></g><g clip-path="url(#eaff3d88eb)"><path fill="#025183" d="M 184.785156 90.714844 L 186.28125 90.714844 L 186.28125 91.179688 L 184.207031 91.179688 L 184.207031 87.878906 L 184.785156 87.878906 Z M 184.785156 90.714844 " fill-opacity="1" fill-rule="nonzero"/></g><g clip-path="url(#44a67fc5ac)"><path fill="#025183" d="M 190.140625 89.617188 C 190.144531 89.917969 190.085938 90.207031 189.96875 90.484375 C 189.847656 90.703125 189.691406 90.894531 189.507812 91.0625 C 189.289062 91.175781 189.058594 91.234375 188.816406 91.234375 C 188.566406 91.25 188.335938 91.191406 188.125 91.0625 C 187.890625 90.933594 187.738281 90.742188 187.664062 90.484375 C 187.542969 90.226562 187.488281 89.957031 187.492188 89.671875 L 187.492188 89.5 C 187.488281 89.199219 187.542969 88.910156 187.664062 88.632812 C 187.769531 88.402344 187.925781 88.210938 188.125 88.054688 C 188.339844 87.941406 188.570312 87.882812 188.816406 87.878906 C 189.0625 87.875 189.292969 87.933594 189.507812 88.054688 C 189.722656 88.195312 189.875 88.390625 189.96875 88.632812 C 190.085938 88.910156 190.144531 89.199219 190.140625 89.5 Z M 189.566406 89.441406 C 189.597656 89.140625 189.519531 88.871094 189.335938 88.632812 C 189.183594 88.453125 188.992188 88.355469 188.757812 88.34375 C 188.515625 88.339844 188.324219 88.4375 188.183594 88.632812 C 188.027344 88.878906 187.949219 89.148438 187.953125 89.441406 L 187.953125 89.617188 C 187.921875 89.917969 187.996094 90.1875 188.183594 90.425781 C 188.25 90.515625 188.335938 90.589844 188.4375 90.640625 C 188.539062 90.691406 188.644531 90.714844 188.757812 90.714844 C 188.871094 90.714844 188.980469 90.691406 189.082031 90.640625 C 189.179688 90.589844 189.265625 90.515625 189.335938 90.425781 C 189.496094 90.160156 189.574219 89.871094 189.566406 89.558594 Z M 189.566406 89.441406 " fill-opacity="1" fill-rule="nonzero"/></g><g clip-path="url(#8b4353b7a7)"><path fill="#025183" d="M 194.171875 90.773438 C 194.046875 90.957031 193.875 91.074219 193.65625 91.121094 C 193.429688 91.1875 193.199219 91.226562 192.964844 91.234375 C 192.699219 91.242188 192.449219 91.183594 192.214844 91.0625 C 191.980469 90.960938 191.828125 90.789062 191.753906 90.542969 C 191.664062 90.277344 191.605469 90.007812 191.582031 89.730469 L 191.582031 89.5 C 191.554688 89.070312 191.667969 88.6875 191.925781 88.34375 C 192.1875 88.042969 192.511719 87.910156 192.90625 87.9375 C 193.226562 87.9375 193.515625 88.03125 193.769531 88.226562 C 194.011719 88.441406 194.148438 88.714844 194.171875 89.039062 L 193.597656 89.039062 C 193.589844 88.859375 193.515625 88.710938 193.378906 88.59375 C 193.242188 88.480469 193.082031 88.433594 192.90625 88.457031 C 192.664062 88.457031 192.472656 88.554688 192.328125 88.75 C 192.203125 89.003906 192.125 89.273438 192.097656 89.558594 L 192.097656 89.789062 C 192.066406 90.089844 192.144531 90.359375 192.328125 90.597656 C 192.496094 90.792969 192.707031 90.890625 192.964844 90.890625 C 193.195312 90.910156 193.40625 90.851562 193.597656 90.714844 L 193.597656 90.078125 L 192.90625 90.078125 L 192.90625 89.617188 L 194.171875 89.617188 Z M 194.171875 90.773438 " fill-opacity="1" fill-rule="nonzero"/></g><g clip-path="url(#dfe9c252e3)"><path fill="#025183" d="M 196.878906 89.441406 L 197.628906 87.878906 L 198.261719 87.878906 L 197.167969 89.964844 L 197.167969 91.179688 L 196.59375 91.179688 L 196.59375 89.964844 L 195.5 87.878906 L 196.132812 87.878906 Z M 196.878906 89.441406 " fill-opacity="1" fill-rule="nonzero"/></g></svg>